<svg xmlns="http://www.w3.org/2000/svg" xmlns:xlink="http://www.w3.org/1999/xlink" viewBox="0 0 1385.92 652"><defs><linearGradient id="linear-gradient" x1="143.4" y1="552.25" x2="218.78" y2="595.77" gradientUnits="userSpaceOnUse"><stop offset="0.12" stop-color="#fff"/><stop offset="1" stop-color="#222221"/></linearGradient></defs><title>background</title><g style="isolation:isolate"><g id="Layer_1" data-name="Layer 1"><rect x="27.15" y="0.49" width="1358" height="650" style="fill:#fff"/><circle cx="109.9" cy="578.93" r="1.76"/><circle cx="109.9" cy="592.16" r="1.76"/><circle cx="109.9" cy="605.38" r="1.76"/><circle cx="109.9" cy="618.61" r="1.76"/><path d="M82.75,632.1a1.76,1.76,0,1,1,1.75-1.76A1.76,1.76,0,0,1,82.75,632.1Z" transform="translate(27.15 1.49)"/><path d="M82.75,645.32a1.76,1.76,0,1,1,1.75-1.75A1.75,1.75,0,0,1,82.75,645.32Z" transform="translate(27.15 1.49)"/><path d="M63,579.2a1.76,1.76,0,1,1,1.75-1.76A1.76,1.76,0,0,1,63,579.2Z" transform="translate(27.15 1.49)"/><path d="M63,592.42a1.76,1.76,0,1,1,1.75-1.75A1.75,1.75,0,0,1,63,592.42Z" transform="translate(27.15 1.49)"/><path d="M63,605.65a1.76,1.76,0,1,1,1.75-1.76A1.76,1.76,0,0,1,63,605.65Z" transform="translate(27.15 1.49)"/><path d="M63,618.87a1.76,1.76,0,1,1,1.75-1.75A1.75,1.75,0,0,1,63,618.87Z" transform="translate(27.15 1.49)"/><path d="M63,632.1a1.76,1.76,0,1,1,1.75-1.76A1.76,1.76,0,0,1,63,632.1Z" transform="translate(27.15 1.49)"/><path d="M63,645.32a1.76,1.76,0,1,1,1.75-1.75A1.75,1.75,0,0,1,63,645.32Z" transform="translate(27.15 1.49)"/><circle cx="70.3" cy="578.93" r="1.76"/><circle cx="70.3" cy="592.16" r="1.76"/><circle cx="70.3" cy="605.38" r="1.76"/><circle cx="70.3" cy="618.61" r="1.76"/><path d="M43.15,632.1a1.76,1.76,0,1,1,1.75-1.76A1.76,1.76,0,0,1,43.15,632.1Z" transform="translate(27.15 1.49)"/><path d="M43.15,645.32a1.76,1.76,0,1,1,1.75-1.75A1.75,1.75,0,0,1,43.15,645.32Z" transform="translate(27.15 1.49)"/><path d="M302.2,649.35H91.5L196.85,466.88Zm-208.62-1.2H300.13L196.85,469.28Z" transform="translate(27.15 1.49)"/><polygon points="312.03 622.09 295.78 650.24 328.28 650.24 312.03 622.09"/><rect x="154.43" y="424.74" width="1.2" height="240.18" transform="matrix(0.87, -0.5, 0.5, 0.87, -225.06, 152.58)"/><rect x="174.58" y="570.59" width="77.08" height="1.2" transform="translate(-314.32 319.49) rotate(-45)"/><rect x="183.63" y="585.11" width="76.66" height="1.2" transform="translate(-322 329.98) rotate(-45)"/><rect x="191.35" y="599.94" width="77.08" height="1.2" transform="translate(-330.18 339.97) rotate(-45)"/><rect x="139.95" y="412.02" width="7.65" height="7.65" transform="translate(498.46 711.14) rotate(150.97)"/><rect x="130.87" y="416.15" width="4.61" height="4.61" transform="translate(479.86 721.19) rotate(150.97)"/><path d="M91.12,445.76,41.8,495.08a34.87,34.87,0,0,1,0-49.32A34.87,34.87,0,0,0,91.12,445.76Z" transform="translate(27.15 1.49)"/><path d="M91.12,445.76a34.87,34.87,0,0,1-49.32,0A34.87,34.87,0,0,1,91.12,445.76Z" transform="translate(27.15 1.49)" style="fill:#c8c8c8"/><path d="M66.46,456.4a35.23,35.23,0,0,1-25-10.32l-.31-.32.31-.31a35.36,35.36,0,0,1,50,0l.32.31-.32.32A35.21,35.21,0,0,1,66.46,456.4Zm-24-10.64a34.47,34.47,0,0,0,48.06,0A34.49,34.49,0,0,0,42.43,445.76Z" transform="translate(27.15 1.49)" style="fill:#222221"/><path d="M33.28,311.89h.44l2.37,121.61H34.68l-.13-.22-53-91.77.15-.24A61.52,61.52,0,0,1,33.28,311.89Zm1.9,120.68L32.85,312.82a60.65,60.65,0,0,0-50.23,28.71l52.56,91Z" transform="translate(27.15 1.49)"/><path d="M34.93,433-17.9,341.52a59.32,59.32,0,0,0-8.79,32.36C-26,407,1.47,433.31,34.93,433Z" transform="translate(27.15 1.49)" style="fill:#c8c8c8"/><path d="M34.14,432.58l-52-90.18a59.27,59.27,0,0,0,10,73.23A60.77,60.77,0,0,0,34.14,432.58Zm-52-91.94.37.64,53.23,92.21h-.78A61.61,61.61,0,0,1-8.49,416.31a60.2,60.2,0,0,1-9.78-75Z" transform="translate(27.15 1.49)"/><circle cx="62.86" cy="379.35" r="10.93"/><polygon points="145.36 418.36 199.15 513.14 200.31 512.47 146.32 417.33 145.36 418.36" style="fill:#222221"/><rect x="-25.16" y="476.46" width="169.44" height="1.35" transform="translate(-294.41 185.45) rotate(-45.32)" style="fill:#222221"/><polygon points="223.21 469.83 119.93 651.1 93.61 652 205.18 467.21 223.21 469.83" style="opacity:0.46;mix-blend-mode:multiply;fill:url(#linear-gradient)"/><path d="M-.49,519.2V648.72S31.58,630,31.58,584C31.58,549.12,13.74,530.67-.49,519.2Z" transform="translate(27.15 1.49)"/><rect x="122.16" y="398.96" width="13.45" height="13.45" transform="translate(468.48 696.26) rotate(150.4)"/><rect x="262.8" y="501.81" width="11.65" height="11.65"/><rect x="302.28" y="524.33" width="7.94" height="7.94"/><rect x="301.63" y="466.31" width="16.63" height="16.63"/><path d="M280.8,393.16H257.57V416.4H280.8ZM275,410.59H263.38V399H275Z" transform="translate(27.15 1.49)"/><rect x="290.52" y="400.46" width="11.62" height="11.62" style="fill:#fff"/><rect x="1050.91" y="64.29" width="12.93" height="12.93"/><rect x="1030.05" y="24.59" width="8.81" height="8.81"/><rect x="1084.79" y="15.68" width="18.45" height="18.45"/><path d="M1129.83,25.62V51.41h25.79V25.62Zm19.35,6.45V45h-12.9V32.07Z" transform="translate(27.15 1.49)"/><rect x="1163.43" y="33.56" width="12.89" height="12.89" style="fill:#fff"/><rect x="1299.55" y="39.29" width="19.32" height="19.32" transform="translate(2645.57 99.4) rotate(180)"/><rect x="1330.55" y="78.61" width="14.8" height="14.8" transform="translate(2703.06 173.52) rotate(180)"/><rect x="1329.16" y="29.01" width="29.61" height="29.61" transform="translate(1327.3 1389.26) rotate(-90)"/><rect x="1329.16" y="-0.6" width="29.61" height="29.61" transform="translate(1356.91 1359.66) rotate(-90)"/><rect x="1299.55" y="-0.6" width="29.61" height="29.61" transform="translate(1327.3 1330.05) rotate(-90)"/><rect x="1277.34" y="93.42" width="22.22" height="22.22" transform="translate(2604.04 210.54) rotate(180)"/><rect x="1245.19" y="121.39" width="9.61" height="9.61" transform="translate(2527.14 253.88) rotate(180)"/><rect x="1252.88" y="31.71" width="26.51" height="26.51" transform="translate(2559.42 91.41) rotate(180)"/><rect x="1201.28" y="81.39" width="11.46" height="11.46" transform="translate(2441.17 175.73) rotate(180)"/><rect x="1354.5" y="487.97" width="23.47" height="23.01"/><rect x="1316.56" y="475.35" width="20.86" height="21.29" transform="translate(868.15 1814.48) rotate(-90)"/><rect x="1330.6" y="445.9" width="9.49" height="9.68" transform="translate(911.75 1787.58) rotate(-90)"/><rect x="1327.52" y="533.37" width="18.91" height="19.29" transform="translate(821.11 1881.49) rotate(-90)"/><rect x="1269.85" y="591.33" width="18.91" height="19.29" transform="translate(705.48 1881.77) rotate(-90)"/><rect x="1235.05" y="621.72" width="14.49" height="14.78" transform="translate(640.34 1872.89) rotate(-90)"/><rect x="1296.81" y="621.99" width="29.57" height="28.98"/><rect x="1326.37" y="621.99" width="29.57" height="28.98"/><rect x="1355.94" y="621.99" width="29.57" height="28.98"/><rect x="1326.37" y="593.01" width="29.57" height="28.98"/><rect x="1355.94" y="593.01" width="29.57" height="28.98"/><rect x="1355.94" y="564.03" width="29.57" height="28.98"/><rect x="1212.94" y="569.56" width="21.74" height="22.18" transform="translate(670.31 1805.95) rotate(-90)"/><rect x="1276.04" y="539.97" width="25.95" height="26.47" transform="translate(762.96 1843.71) rotate(-90)"/><rect x="1241.31" y="489.61" width="11.22" height="11.45" transform="translate(778.73 1743.75) rotate(-90)"/><path d="M815,614.5l62.38,34.73,2-1.08c.57-51.1,41.61-92.35,92.17-92.35a90.79,90.79,0,0,1,49.17,14.39l46.05-25.4-62.62-35L815,614.5" transform="translate(27.15 1.49)"/><path d="M1064.41,649.23v.67H878.62v-2.14l.35-.2,141.73-78.17.36.23A94,94,0,0,1,1064.41,649.23ZM880,648.55h183A92.65,92.65,0,0,0,1020.65,571L880,648.54Z" transform="translate(27.15 1.49)"/><path d="M879.34,648.15l141.34-78a90.79,90.79,0,0,0-49.17-14.39C921,555.8,879.91,597.05,879.34,648.15Z" transform="translate(27.15 1.49)" style="fill:#c8c8c8"/><path d="M1022,570.23l-1,.54L878.62,649.33v-1.19a94.15,94.15,0,0,1,27.54-65.8,92,92,0,0,1,114.9-12.72ZM880.06,647l139.28-76.82a90.53,90.53,0,0,0-112.15,13.12A92.85,92.85,0,0,0,880.06,647Z" transform="translate(27.15 1.49)"/><path d="M937.38,649.23a31.32,31.32,0,1,1,62.64,0Z" transform="translate(27.15 1.49)"/><path d="M185.76,4.55a3,3,0,1,1,3-3A3,3,0,0,1,185.76,4.55Z" transform="translate(27.15 1.49)"/><path d="M185.76,27.31a3,3,0,1,1,3-3A3,3,0,0,1,185.76,27.31Z" transform="translate(27.15 1.49)"/><path d="M185.76,50.07a3,3,0,1,1,3-3A3,3,0,0,1,185.76,50.07Z" transform="translate(27.15 1.49)"/><path d="M185.76,72.83a3,3,0,1,1,3-3A3,3,0,0,1,185.76,72.83Z" transform="translate(27.15 1.49)"/><path d="M185.76,95.59a3,3,0,1,1,3-3A3,3,0,0,1,185.76,95.59Z" transform="translate(27.15 1.49)"/><path d="M185.76,118.35a3,3,0,1,1,3-3A3,3,0,0,1,185.76,118.35Z" transform="translate(27.15 1.49)"/><path d="M185.76,141.11a3,3,0,1,1,3-3A3,3,0,0,1,185.76,141.11Z" transform="translate(27.15 1.49)"/><path d="M185.76,163.87a3,3,0,1,1,3-3A3,3,0,0,1,185.76,163.87Z" transform="translate(27.15 1.49)"/><path d="M185.76,186.63a3,3,0,1,1,3-3A3,3,0,0,1,185.76,186.63Z" transform="translate(27.15 1.49)"/><path d="M185.76,209.39a3,3,0,1,1,3-3A3,3,0,0,1,185.76,209.39Z" transform="translate(27.15 1.49)"/><path d="M219.83,4.55a3,3,0,1,1,3-3A3,3,0,0,1,219.83,4.55Z" transform="translate(27.15 1.49)"/><path d="M219.83,27.31a3,3,0,1,1,3-3A3,3,0,0,1,219.83,27.31Z" transform="translate(27.15 1.49)"/><path d="M219.83,50.07a3,3,0,1,1,3-3A3,3,0,0,1,219.83,50.07Z" transform="translate(27.15 1.49)"/><path d="M219.83,72.83a3,3,0,1,1,3-3A3,3,0,0,1,219.83,72.83Z" transform="translate(27.15 1.49)"/><path d="M219.83,95.59a3,3,0,1,1,3-3A3,3,0,0,1,219.83,95.59Z" transform="translate(27.15 1.49)"/><path d="M219.83,118.35a3,3,0,1,1,3-3A3,3,0,0,1,219.83,118.35Z" transform="translate(27.15 1.49)"/><path d="M219.83,141.11a3,3,0,1,1,3-3A3,3,0,0,1,219.83,141.11Z" transform="translate(27.15 1.49)"/><path d="M219.83,163.87a3,3,0,1,1,3-3A3,3,0,0,1,219.83,163.87Z" transform="translate(27.15 1.49)"/><path d="M219.83,186.63a3,3,0,1,1,3-3A3,3,0,0,1,219.83,186.63Z" transform="translate(27.15 1.49)"/><path d="M219.83,209.39a3,3,0,1,1,3-3A3,3,0,0,1,219.83,209.39Z" transform="translate(27.15 1.49)"/><path d="M253.9,4.55a3,3,0,1,1,3-3A3,3,0,0,1,253.9,4.55Z" transform="translate(27.15 1.49)"/><path d="M253.9,27.31a3,3,0,1,1,3-3A3,3,0,0,1,253.9,27.31Z" transform="translate(27.15 1.49)"/><path d="M253.9,50.07a3,3,0,1,1,3-3A3,3,0,0,1,253.9,50.07Z" transform="translate(27.15 1.49)"/><path d="M253.9,72.83a3,3,0,1,1,3-3A3,3,0,0,1,253.9,72.83Z" transform="translate(27.15 1.49)"/><path d="M253.9,95.59a3,3,0,1,1,3-3A3,3,0,0,1,253.9,95.59Z" transform="translate(27.15 1.49)"/><path d="M253.9,118.35a3,3,0,1,1,3-3A3,3,0,0,1,253.9,118.35Z" transform="translate(27.15 1.49)"/><path d="M253.9,141.11a3,3,0,1,1,3-3A3,3,0,0,1,253.9,141.11Z" transform="translate(27.15 1.49)"/><path d="M253.9,163.87a3,3,0,1,1,3-3A3,3,0,0,1,253.9,163.87Z" transform="translate(27.15 1.49)"/><path d="M253.9,186.63a3,3,0,1,1,3-3A3,3,0,0,1,253.9,186.63Z" transform="translate(27.15 1.49)"/><path d="M253.9,209.39a3,3,0,1,1,3-3A3,3,0,0,1,253.9,209.39Z" transform="translate(27.15 1.49)"/><path d="M288,4.55a3,3,0,1,1,3-3A3,3,0,0,1,288,4.55Z" transform="translate(27.15 1.49)"/><path d="M288,27.31a3,3,0,1,1,3-3A3,3,0,0,1,288,27.31Z" transform="translate(27.15 1.49)"/><path d="M288,50.07a3,3,0,1,1,3-3A3,3,0,0,1,288,50.07Z" transform="translate(27.15 1.49)"/><path d="M288,72.83a3,3,0,1,1,3-3A3,3,0,0,1,288,72.83Z" transform="translate(27.15 1.49)"/><path d="M288,95.59a3,3,0,1,1,3-3A3,3,0,0,1,288,95.59Z" transform="translate(27.15 1.49)"/><path d="M288,118.35a3,3,0,1,1,3-3A3,3,0,0,1,288,118.35Z" transform="translate(27.15 1.49)"/><path d="M288,141.11a3,3,0,1,1,3-3A3,3,0,0,1,288,141.11Z" transform="translate(27.15 1.49)"/><path d="M288,163.87a3,3,0,1,1,3-3A3,3,0,0,1,288,163.87Z" transform="translate(27.15 1.49)"/><path d="M288,186.63a3,3,0,1,1,3-3A3,3,0,0,1,288,186.63Z" transform="translate(27.15 1.49)"/><path d="M288,209.39a3,3,0,1,1,3-3A3,3,0,0,1,288,209.39Z" transform="translate(27.15 1.49)"/><path d="M110.21,61V259.19C168,259.05,215,214.65,215,160.08S168,61.11,110.21,61Z" transform="translate(27.15 1.49)" style="fill:#fff"/><path d="M108.91,58.89h-.78V259.18h.78c58.47,0,106-44.93,106-100.15S167.38,58.89,108.91,58.89ZM212.87,159a92.77,92.77,0,0,1-8.16,38.15,97.72,97.72,0,0,1-22.26,31.17,104.2,104.2,0,0,1-33,21,108.67,108.67,0,0,1-39.19,7.71V61a108.44,108.44,0,0,1,39.19,7.7,104.4,104.4,0,0,1,33,21,97.61,97.61,0,0,1,22.26,31.17A92.72,92.72,0,0,1,212.87,159Z" transform="translate(27.15 1.49)" style="fill:#222221"/><path d="M172.88,198c20.27,0,36.71,15.51,36.71,34.65s-16.44,34.65-36.71,34.65Z" transform="translate(27.15 1.49)" style="fill:#1a1a1a"/><polygon points="564.38 338.85 541.35 378.75 587.42 378.75 564.38 338.85"/><polygon points="548.14 341.71 530.58 327.88 513.02 341.71 495.46 327.88 477.9 341.71 460.36 327.89 444.65 341.35 443.76 340.31 460.32 326.12 477.9 339.96 495.46 326.13 513.02 339.96 530.58 326.13 548.14 339.96 565.7 326.13 583.26 339.96 600.82 326.13 618.38 339.96 635.95 326.13 653.93 340.3 653.09 341.37 635.95 327.88 618.38 341.71 600.82 327.88 583.26 341.71 565.7 327.88 548.14 341.71"/><polygon points="582.8 320.5 565.24 306.67 547.68 320.5 530.12 306.67 512.56 320.5 495 306.67 477.44 320.5 459.9 306.68 444.19 320.15 443.3 319.11 459.86 304.91 477.44 318.75 495 304.92 512.56 318.75 530.12 304.92 547.68 318.75 565.24 304.92 582.8 318.75 600.36 304.92 617.92 318.75 635.49 304.92 653.47 319.09 652.63 320.16 635.49 306.67 617.92 320.5 600.36 306.67 582.8 320.5"/><path d="M586.17,259.68a9,9,0,1,1-9-9A9,9,0,0,1,586.17,259.68Z" transform="translate(27.15 1.49)"/><path d="M577.18,269.35a9.68,9.68,0,1,1,9.68-9.67A9.68,9.68,0,0,1,577.18,269.35Zm0-18a8.31,8.31,0,1,0,8.31,8.31A8.31,8.31,0,0,0,577.18,251.37Z" transform="translate(27.15 1.49)"/><path d="M617.52,283.65a6.45,6.45,0,1,1-6.45-6.46A6.45,6.45,0,0,1,617.52,283.65Z" transform="translate(27.15 1.49)"/><path d="M611.07,290.79a7.14,7.14,0,1,1,7.14-7.14A7.14,7.14,0,0,1,611.07,290.79Zm0-12.91a5.77,5.77,0,1,0,5.77,5.77A5.78,5.78,0,0,0,611.07,277.88Z" transform="translate(27.15 1.49)"/></g></g></svg>