<svg width="120" height="120" viewBox="0 0 120 120" fill="none" xmlns="http://www.w3.org/2000/svg">
<path d="M53 116.32L3.68005 67C-0.159951 63.16 -0.159951 56.84 3.68005 53L53 3.67999C56.84 -0.160013 63.16 -0.160013 67 3.67999L116.32 53C120.16 56.84 120.16 63.16 116.32 67L67 116.32C66.04 117.28 64.92 118 63.76 118.48C63.72 118.48 56.36 118.52 56.36 118.52C55.12 118.04 53.96 117.28 53 116.32Z" fill="#15A04B"/>
<path d="M93.0401 39.56C89.8 39.56 87.12 42.24 87.12 45.48C87.12 48.08 88.84 50.4 91.28 51.16V62.16C91.28 68.4 87.36 71.84 78.56 73.24C77.36 70.92 74.84 69.44 70.88 68.84H70.84C67.72 68.44 65.36 67.52 63.64 66.12V63.2C65.32 61.72 67.68 60.8 70.92 60.4H70.96C76.52 59.56 79.36 56.92 79.36 52.64V46.2C81.92 45.56 83.88 43.24 83.88 40.44C83.88 37.16 81.2 34.48 77.96 34.48C74.72 34.48 72.04 37.16 72.04 40.48C72.04 43.32 74.08 45.72 76.72 46.28V52.68C76.72 55.64 74.88 57.16 70.56 57.84C67.76 58.16 65.48 58.88 63.68 60V40.56C65.84 39.28 67.28 36.96 67.28 34.32C67.28 30.32 64.04 27.04 60 27.04C56 27.04 52.72 30.28 52.72 34.32C52.72 37 54.16 39.32 56.32 40.56V57.16C54.68 56.36 52.72 55.8 50.4 55.52C45 54.72 44.32 52.4 44.32 50.44V45.92C46.92 45.32 48.92 42.96 48.92 40.12C48.92 36.88 46.24 34.2 43 34.2C39.76 34.2 37.08 36.84 37.08 40.08C37.08 42.92 39.08 45.24 41.68 45.88V50.4C41.68 54.68 44.48 57.28 50.04 58.08C52.72 58.48 54.76 59.08 56.32 60.16V69.48C52.6 67.12 47.92 65.56 42.08 64.84C33.08 63.48 29.08 60.08 29.08 53.72V51.2C31.44 50.4 33.12 48.2 33.12 45.56C33.12 42.32 30.44 39.64 27.2 39.64C23.96 39.64 21.28 42.32 21.28 45.56C21.28 48.16 22.96 50.4 25.32 51.2V53.72C25.32 58.36 27.04 62 30.48 64.52C33.08 66.48 36.72 67.76 41.56 68.48H41.6C48.08 69.32 52.88 71.16 56.36 74.04V118.52C58.72 119.44 61.4 119.4 63.76 118.48V98.6C65.44 97.16 67.76 96.28 70.96 95.88H71C76.56 95.04 79.4 92.4 79.4 88.12V87.16C81.12 86.6 82.4 84.96 82.4 83.08C82.4 81.2 81.12 79.52 79.4 79V76.92C83.96 76.16 87.44 74.88 89.96 73C93.4 70.48 95.12 66.84 95.12 62.2V51.16C97.28 50.32 98.9201 48.12 98.9201 45.52C98.9201 43.96 98.3201 42.48 97.2401 41.32C96.1201 40.2 94.6401 39.56 93.0401 39.56ZM74.16 40.48C74.16 38.4 75.84 36.72 77.88 36.72C79.96 36.72 81.6 38.4 81.6 40.48C81.6 42.56 79.92 44.2 77.88 44.2C75.88 44.2 74.16 42.48 74.16 40.48ZM42.92 43.8C40.88 43.8 39.2 42.12 39.2 40.08C39.2 38 40.88 36.36 42.92 36.36C44.96 36.36 46.64 38.04 46.64 40.08C46.64 42.12 44.92 43.8 42.92 43.8ZM27.12 49.2C25.08 49.2 23.4 47.56 23.4 45.48C23.4 43.4 25.08 41.76 27.12 41.76C29.16 41.76 30.84 43.44 30.84 45.48C30.84 47.52 29.12 49.2 27.12 49.2ZM59.92 39.32C57.12 39.32 54.84 37.04 54.84 34.24C54.84 31.4 57.12 29.12 59.92 29.12C62.72 29.12 65 31.4 65 34.2C65 37 62.72 39.32 59.92 39.32ZM63.6 69.32C65.44 70.36 67.68 71.08 70.44 71.44C73 71.84 74.72 72.52 75.64 73.68C70.84 74.56 66.8 76.04 63.6 78.16V69.32ZM76.64 79C74.92 79.56 73.64 81.2 73.64 83.08C73.64 85.04 74.92 86.64 76.64 87.16V88.12C76.6 91.08 74.8 92.6 70.48 93.28C67.72 93.6 65.48 94.32 63.68 95.4V82.84C66.8 80.08 71.04 78.28 76.64 77.32V79ZM93.0401 49.24C90.96 49.24 89.32 47.56 89.32 45.52C89.32 43.48 91 41.8 93.0401 41.8C94.0401 41.8 95 42.2 95.72 42.88C96.44 43.6 96.76 44.52 96.76 45.48C96.76 47.56 95.0801 49.24 93.0401 49.24Z" fill="white"/>
</svg>
