<svg width="120" height="109" viewBox="0 0 120 109" fill="none" xmlns="http://www.w3.org/2000/svg">
<path d="M15.1866 77.8991C15.1866 77.8991 16.8211 91.9405 26.2342 97.051C38.2001 103.547 52.0943 102.269 52.0943 102.269L15.1866 77.8991Z" fill="#1F742F"/>
<path d="M27.858 17.6635C27.858 17.6635 46.9379 2.56164 68.597 3.43447C77.117 3.77771 92.6827 12.672 99.5963 17.6635C117.741 30.7637 117.911 37.0827 118.032 45.131C118.322 64.4678 107.943 79.9429 107.943 79.9429L27.858 17.6635Z" fill="#9C332A"/>
<path d="M91.25 96.4167L107.943 75.8354C107.943 75.8354 106.067 88.3701 103.359 91.3848C101.168 93.8241 91.25 96.4167 91.25 96.4167Z" fill="#1F742F"/>
<path d="M52.0941 102.269C52.0941 102.269 62.3545 109.315 75.7918 107.006C85.8005 105.286 93.123 95.7851 93.123 95.7851L52.0941 102.269Z" fill="#1D406B"/>
<path d="M26.302 14.567C26.302 14.567 17.4538 20.8788 15.2691 23.7203C4.71312 37.451 2.36792 61.5276 2.36792 61.5276L5.87067 71.3663L15.1867 77.899L28.8355 17.264L28.3451 15.2208L26.302 14.567Z" fill="#1D406B"/>
<path d="M78.8728 105.934C72.0052 108.257 62.3293 106.487 52.0944 102.269C44.5273 101.968 32.3917 100.556 25.4863 96.6155C18.148 92.4276 15.3618 79.025 15.1863 77.8991C9.5201 72.4317 4.98829 66.7845 2.36752 61.5276C0.356431 75.856 1.51595 89.8225 7.86436 95.7976C24.7452 111.685 85.974 113.791 100.589 95.7976C101.602 94.5511 102.523 93.0637 103.358 91.3851C100.272 93.0225 96.8212 94.4932 93.1224 95.7851C88.3114 100.723 83.369 104.412 78.8728 105.934Z" fill="#2DBEA0"/>
<path d="M103.614 8.45824C96.831 2.60803 83.0665 1.50277 68.5969 3.4341C90.209 10.9231 115.881 29.2576 117.741 44.2607C118.747 52.3789 114.494 64.4582 107.943 75.835C106.969 81.8003 105.44 87.1984 103.359 91.3844C109.256 88.2549 113.82 84.5198 116.194 80.2629C125.07 64.3468 117.414 20.362 103.614 8.45824Z" fill="#F79A4B"/>
<path d="M18.0544 22.8988C20.6523 20.6386 24.3218 18.6903 28.6869 17.0832C38.2448 10.5687 53.7879 5.4109 68.5968 3.43446C60.7113 0.7019 53.3652 -0.588049 47.9142 0.256008C29.7297 3.07226 -4.18623 38.6815 0.426656 56.496C0.846397 58.1171 1.50705 59.8019 2.36713 61.5279C4.60215 45.6138 10.7492 29.2544 18.0544 22.8988Z" fill="#9F57B1"/>
<path d="M100.59 22.8988C89.7049 9.59298 50.4788 9.06013 28.687 17.0833C26.0695 18.8668 23.8979 20.7514 22.317 22.701C14.3057 32.5796 11.24 59.1135 15.1867 77.8995C25.3575 87.714 39.1687 96.9434 52.094 102.27C65.4976 102.447 80.6969 100.126 93.123 95.7855C98.494 90.2743 103.7 83.2034 107.943 75.8361C111.009 57.0511 108.576 32.6617 100.59 22.8988Z" fill="#1A2719"/>
<path d="M45.7758 44.8642H48.6061C49.3076 44.8642 49.6584 45.2149 49.6584 45.9165L50.7107 69.9015H48.3521L47.3727 46.8599H46.5744L40.0793 66.4909C39.9096 67.0231 39.5471 67.2889 38.9907 67.2889H36.5962C36.0391 67.2889 35.6763 67.0231 35.5076 66.4909L28.9761 46.8599H28.2141L27.2707 69.9015H24.9121L25.9278 45.9165C25.9278 45.2149 26.2782 44.8642 26.9801 44.8642H29.847C30.355 44.8642 30.7051 45.1427 30.8993 45.6987L36.3788 62.0274C36.7652 63.2373 37.1042 64.3742 37.3944 65.4383H38.1924C38.3375 64.9064 38.688 63.757 39.2447 61.9911L44.7242 45.6987C44.8687 45.1427 45.2191 44.8642 45.7758 44.8642Z" fill="white"/>
<path d="M73.6428 55.4234V69.9015H71.9373L71.6111 67.0712C69.4817 69.2483 66.9541 70.3369 64.0273 70.3369C61.1729 70.3369 59.1225 69.3088 57.8771 67.2526C56.6306 65.1967 56.0082 61.8944 56.0082 57.3462C56.0082 52.4839 56.7457 49.1155 58.2216 47.2408C59.6966 45.3663 62.3092 44.4284 66.0594 44.4284C68.8174 44.4284 71.1629 44.6586 73.0988 45.1175L72.8082 46.8956C70.631 46.654 68.4294 46.5327 66.2045 46.5327C64.2209 46.5327 62.6969 46.8357 61.6325 47.4398C60.5674 48.0449 59.7819 49.127 59.2739 50.6876C58.7656 52.2476 58.5119 54.5038 58.5119 57.4548C58.5119 61.3736 58.9712 64.1559 59.8908 65.8005C60.81 67.4458 62.3945 68.268 64.6442 68.268C65.5386 68.268 66.4222 68.1111 67.2934 67.7963C68.1642 67.4824 68.8592 67.1559 69.3797 66.8169C69.8998 66.4782 70.5464 66.0065 71.3208 65.4017V55.4231H73.6428V55.4234Z" fill="white"/>
<path d="M92.911 61.6283H81.9887L79.231 69.9015H76.7635L85.1459 45.5536C85.2907 45.0946 85.6049 44.8645 86.0893 44.8645H88.8108C89.2942 44.8645 89.6087 45.0946 89.7542 45.5536L98.1362 69.9015H95.6688L92.911 61.6283ZM92.2213 59.56L88.6293 48.7831C88.6048 48.6621 88.5077 48.3538 88.3387 47.8576C88.169 47.362 88.0481 46.9929 87.9762 46.7507H86.9599L86.2708 48.7831L82.6785 59.56H92.2213V59.56Z" fill="white"/>
</svg>
