<svg width="250" height="100" viewBox="0 0 250 100" fill="none" xmlns="http://www.w3.org/2000/svg">
<g clip-path="url(#clip0)">
<path d="M122.3 36.9631C122.3 35.8954 122.856 35.5562 123.707 35.5562H128.99C129.691 35.5562 130.202 35.7619 130.202 36.5238C130.202 37.2856 129.691 37.4914 128.99 37.4914H124.702V39.9493H128.334C128.962 39.9493 129.446 40.1272 129.446 40.8724C129.446 41.6175 128.945 41.7955 128.334 41.7955H124.702V45.0875C124.702 45.4061 124.576 45.7116 124.351 45.9369C124.125 46.1621 123.82 46.2887 123.501 46.2887C123.183 46.2887 122.877 46.1621 122.652 45.9369C122.427 45.7116 122.3 45.4061 122.3 45.0875V36.9631Z" fill="#317FDD"/>
<path d="M131.398 36.9631C131.398 35.8954 131.954 35.5562 132.805 35.5562H136.803C139.656 35.5562 140.417 37.1244 140.417 38.4812C140.447 39.0495 140.284 39.6111 139.953 40.0746C139.623 40.5381 139.146 40.8761 138.599 41.0337V41.0337C139.828 41.2116 140.05 42.1013 140.05 43.169C140.05 44.3813 140.373 44.8373 140.373 45.3378C140.341 45.6056 140.208 45.8512 140.002 46.0247C139.795 46.1982 139.53 46.2866 139.261 46.272C137.943 46.272 137.843 44.9986 137.843 44.5759C137.843 42.7297 137.504 41.9846 136.174 41.9846H133.806V45.0708C133.806 45.2286 133.775 45.3848 133.714 45.5305C133.654 45.6762 133.565 45.8086 133.454 45.9202C133.342 46.0317 133.21 46.1202 133.064 46.1806C132.918 46.2409 132.762 46.272 132.604 46.272C132.447 46.272 132.29 46.2409 132.145 46.1806C131.999 46.1202 131.867 46.0317 131.755 45.9202C131.644 45.8086 131.555 45.6762 131.495 45.5305C131.434 45.3848 131.403 45.2286 131.403 45.0708L131.398 36.9631ZM133.8 40.244H136.202C137.109 40.244 138.015 40.0105 138.015 38.826C138.015 37.6415 137.326 37.408 136.275 37.408H133.8V40.244Z" fill="#317FDD"/>
<path d="M147.029 35.3115C150.483 35.3115 152.357 37.6082 152.357 40.7C152.357 43.6695 150.627 46.3498 147.029 46.3498C143.254 46.3498 141.702 43.8919 141.702 40.7C141.696 37.6082 143.57 35.3115 147.029 35.3115ZM147.029 44.4147C149.209 44.4147 149.954 42.7186 149.954 40.6944C149.954 38.6703 148.987 37.2411 147.029 37.2411C145.072 37.2411 144.104 38.6758 144.104 40.6944C144.104 42.713 144.772 44.4147 147.029 44.4147Z" fill="#317FDD"/>
<path d="M154.014 36.774C154.014 35.7786 154.498 35.3671 155.521 35.3671C155.759 35.3539 155.997 35.4052 156.208 35.5159C156.419 35.6265 156.597 35.7922 156.722 35.9955L160.921 42.7742H160.948V36.5238C160.948 36.217 161.07 35.9228 161.287 35.7059C161.504 35.489 161.798 35.3671 162.105 35.3671C162.412 35.3671 162.706 35.489 162.923 35.7059C163.14 35.9228 163.262 36.217 163.262 36.5238V44.7928C163.262 45.7437 162.85 46.2887 161.844 46.2887C161.082 46.2887 160.832 46.1274 160.526 45.6436L156.355 39.0595H156.327V45.132C156.327 45.4388 156.205 45.733 155.988 45.9499C155.772 46.1668 155.477 46.2887 155.171 46.2887C154.864 46.2887 154.57 46.1668 154.353 45.9499C154.136 45.733 154.014 45.4388 154.014 45.132V36.774Z" fill="#317FDD"/>
<path d="M167.966 37.5804H165.697C164.991 37.5804 164.435 37.2245 164.435 36.585C164.435 35.9455 164.991 35.5729 165.681 35.5729H172.621C173.31 35.5729 173.866 35.9232 173.866 36.585C173.866 37.2467 173.31 37.597 172.621 37.597H170.352V45.1042C170.352 45.4228 170.225 45.7283 170 45.9535C169.775 46.1788 169.469 46.3054 169.151 46.3054C168.832 46.3054 168.526 46.1788 168.301 45.9535C168.076 45.7283 167.949 45.4228 167.949 45.1042L167.966 37.5804Z" fill="#317FDD"/>
<path d="M176.913 41.0337C177.57 41.0337 178.098 41.295 178.098 42.0457C178.098 42.7965 177.57 43.0578 176.913 43.0578H174.5C173.844 43.0578 173.316 42.7965 173.316 42.0457C173.316 41.295 173.838 41.0337 174.5 41.0337H176.913Z" fill="#317FDD"/>
<path d="M179.883 36.9631C179.883 35.8954 180.439 35.5562 181.29 35.5562H186.923C187.624 35.5562 188.135 35.7619 188.135 36.5238C188.135 37.2856 187.624 37.4914 186.923 37.4914H182.285V39.7769H186.356C186.984 39.7769 187.468 39.9548 187.468 40.7C187.468 41.4452 186.973 41.6231 186.356 41.6231H182.285V44.17H187.04C187.741 44.17 188.252 44.3757 188.252 45.1376C188.252 45.8994 187.741 46.1052 187.04 46.1052H181.29C180.439 46.1052 179.883 45.766 179.883 44.6983V36.9631Z" fill="#317FDD"/>
<path d="M189.742 36.774C189.742 35.7786 190.226 35.3671 191.249 35.3671C191.488 35.3539 191.725 35.4052 191.937 35.5159C192.148 35.6265 192.326 35.7922 192.451 35.9955L196.649 42.7742H196.688V36.5238C196.688 36.217 196.81 35.9228 197.027 35.7059C197.244 35.489 197.538 35.3671 197.845 35.3671C198.151 35.3671 198.446 35.489 198.662 35.7059C198.879 35.9228 199.001 36.217 199.001 36.5238V44.7928C199.001 45.7437 198.59 46.2887 197.583 46.2887C196.821 46.2887 196.571 46.1274 196.265 45.6436L192.095 39.0595H192.067V45.132C192.067 45.4388 191.945 45.733 191.728 45.9499C191.511 46.1668 191.217 46.2887 190.91 46.2887C190.603 46.2887 190.309 46.1668 190.092 45.9499C189.875 45.733 189.754 45.4388 189.754 45.132L189.742 36.774Z" fill="#317FDD"/>
<path d="M201.137 36.9631C201.137 35.8954 201.693 35.5562 202.544 35.5562H205.469C208.088 35.5562 210.473 36.6962 210.473 40.8279C210.473 44.1644 208.616 46.0996 205.407 46.0996H202.521C201.67 46.0996 201.114 45.7604 201.114 44.6927L201.137 36.9631ZM203.539 44.1922H205.585C207.504 44.1922 208.116 42.4795 208.116 40.8557C208.116 38.7759 207.326 37.5192 205.569 37.5192H203.561L203.539 44.1922Z" fill="#317FDD"/>
<path d="M122.078 52.2555C122.078 50.2814 123.107 49.6586 124.675 49.6586H130.575C133.822 49.6586 137.693 50.387 137.693 54.6911C137.703 55.5525 137.445 56.3957 136.955 57.1041C136.465 57.8125 135.766 58.3509 134.957 58.6449V58.7005C137.014 59.2566 138.366 60.7024 138.366 63.3828C138.366 67.47 135.029 69.1494 131.192 69.1494H124.675C123.107 69.1494 122.078 68.5266 122.078 66.5525V52.2555ZM126.526 57.6718H130.18C132.265 57.6718 133.266 56.8321 133.266 55.2917C133.266 53.4233 131.698 52.9117 130.046 52.9117H126.526V57.6718ZM126.526 65.7406H130.263C131.998 65.7406 133.945 65.3903 133.945 63.1437C133.945 60.7859 131.887 60.4911 129.724 60.4911H126.532L126.526 65.7406Z" fill="#317FDD"/>
<path d="M141.341 52.2555C141.341 50.2814 142.369 49.6586 143.938 49.6586H151.328C156.605 49.6586 158.001 52.5558 158.001 55.0693C158.001 57.1824 156.755 59.2622 154.664 59.7515V59.8071C156.939 60.1297 157.345 61.7812 157.345 63.7609C157.345 65.9853 157.94 66.8472 157.94 67.7647C157.94 68.7935 156.883 69.4997 155.854 69.4997C153.419 69.4997 153.23 67.1475 153.23 66.3578C153.23 62.949 152.607 61.5644 150.171 61.5644H145.789V67.2809C145.789 67.8709 145.555 68.4367 145.138 68.8538C144.721 69.2709 144.155 69.5053 143.565 69.5053C142.975 69.5053 142.409 69.2709 141.992 68.8538C141.575 68.4367 141.341 67.8709 141.341 67.2809V52.2555ZM145.789 58.3168H150.238C151.906 58.3168 153.574 57.8831 153.574 55.6921C153.574 53.6068 152.301 53.0674 150.355 53.0674H145.778L145.789 58.3168Z" fill="#317FDD"/>
<path d="M165.82 50.6595C166.198 49.6586 166.904 49.3082 167.983 49.3082H169.039C169.565 49.2454 170.096 49.3753 170.534 49.6739C170.971 49.9724 171.286 50.4194 171.419 50.932L176.78 65.8463C177.007 66.3912 177.153 66.9663 177.214 67.5534C177.194 68.0874 176.963 68.5917 176.572 68.9563C176.182 69.3209 175.663 69.5163 175.128 69.4997C174.155 69.4997 173.46 69.1494 173.127 68.2819L172.014 65.0344H164.841L163.679 68.2819C163.378 69.1494 162.761 69.4997 161.705 69.4997C161.438 69.5235 161.169 69.4904 160.916 69.4025C160.663 69.3146 160.432 69.1741 160.237 68.9901C160.043 68.806 159.89 68.5828 159.788 68.3352C159.686 68.0875 159.638 67.8211 159.647 67.5534C159.708 66.9663 159.854 66.3912 160.081 65.8463L165.82 50.6595ZM168.5 54.1239H168.444L165.82 61.9481H171.019L168.5 54.1239Z" fill="#317FDD"/>
<path d="M189.648 57.8608C193.707 58.7839 194.736 61.1974 194.736 63.4662C194.736 66.9862 192.084 69.5832 186.723 69.5832C181.095 69.5832 178.576 66.7694 178.576 64.6562C178.568 64.41 178.611 64.1648 178.703 63.936C178.794 63.7072 178.932 63.4999 179.108 63.327C179.283 63.1541 179.493 63.0194 179.723 62.9314C179.953 62.8434 180.199 62.8039 180.445 62.8156C182.853 62.8156 182.23 66.3356 186.723 66.3356C189.025 66.3356 190.293 65.0622 190.293 63.7665C190.293 62.9824 189.915 62.0982 188.397 61.7368L183.392 60.4633C179.36 59.4346 178.626 57.2158 178.626 55.1305C178.626 50.7985 182.63 49.1748 186.412 49.1748C189.876 49.1748 193.963 51.1211 193.963 53.7236C193.963 54.8357 193.018 55.4808 191.933 55.4808C189.876 55.4808 190.265 52.5836 186.117 52.5836C184.059 52.5836 182.925 53.5289 182.925 54.8858C182.925 56.2426 184.549 56.6708 185.956 56.9989L189.648 57.8608Z" fill="#317FDD"/>
<path d="M197.656 51.527C197.656 50.9371 197.89 50.3713 198.307 49.9542C198.724 49.537 199.29 49.3027 199.88 49.3027C200.47 49.3027 201.036 49.537 201.453 49.9542C201.87 50.3713 202.104 50.9371 202.104 51.527V67.2809C202.104 67.8709 201.87 68.4367 201.453 68.8538C201.036 69.2709 200.47 69.5053 199.88 69.5053C199.29 69.5053 198.724 69.2709 198.307 68.8538C197.89 68.4367 197.656 67.8709 197.656 67.2809V51.527Z" fill="#317FDD"/>
<path d="M205.886 51.527C205.886 50.9371 206.12 50.3713 206.537 49.9542C206.954 49.537 207.52 49.3027 208.11 49.3027C208.7 49.3027 209.266 49.537 209.683 49.9542C210.1 50.3713 210.334 50.9371 210.334 51.527V65.4292H217.753C219.026 65.4292 220.055 66.0798 220.055 67.2976C220.055 68.5155 219.026 69.1661 217.753 69.1661H208.483C206.914 69.1661 205.886 68.5433 205.886 66.5692V51.527Z" fill="#317FDD"/>
<path d="M245.068 45.8549C245.068 49.4695 246.252 49.8254 247.559 49.8254C249.227 49.8254 249.989 51.3046 249.989 52.667C249.989 54.0294 249.227 55.4919 247.57 55.4919C246.269 55.4919 245.079 55.8478 245.079 59.4624V71.7908C245.079 77.3016 242.649 79.6706 238.089 79.6706H234.235C232.873 79.6706 231.866 78.7808 231.866 76.8234C231.866 74.866 232.873 73.9762 234.235 73.9762H235.536C236.96 73.9762 237.85 72.9085 237.85 70.4784V58.8284C237.85 53.3176 241.642 52.9005 243.477 52.7115V52.5947C241.642 52.4167 237.85 51.9997 237.85 46.4777V34.7999C237.85 32.3698 236.96 31.3021 235.536 31.3021H234.235C232.873 31.3021 231.866 30.4124 231.866 28.455C231.866 26.4975 232.873 25.6078 234.235 25.6078H238.089C242.654 25.6078 245.079 27.9767 245.079 33.4876L245.068 45.8549Z" fill="#317FDD"/>
<path d="M65.8082 2.60336L54.275 14.1366C53.4551 14.8681 52.3863 15.2578 51.288 15.2258C50.1897 15.1938 49.1454 14.7424 48.3696 13.9644C47.5937 13.1864 47.1452 12.1409 47.1162 11.0425C47.0872 9.94418 47.4799 8.87642 48.2136 8.05857L55.8876 0.362326C53.6736 0.0955391 51.4444 -0.0233571 49.2146 0.00642942L39.6109 9.61005C38.8025 10.4135 37.709 10.8644 36.5691 10.8644C35.4293 10.8644 34.3358 10.4135 33.5274 9.61005V9.61005C32.7239 8.80158 32.273 7.70806 32.273 6.56826C32.273 5.42845 32.7239 4.33494 33.5274 3.52646L34.6951 2.35868C27.1184 4.7846 20.2306 8.98512 14.6051 14.6106C8.97956 20.2361 4.77904 27.1239 2.35312 34.7007L4.73873 32.3151C5.54721 31.5116 6.64072 31.0607 7.78053 31.0607C8.92033 31.0607 10.0138 31.5116 10.8223 32.3151C11.6258 33.1236 12.0767 34.2171 12.0767 35.3569C12.0767 36.4967 11.6258 37.5902 10.8223 38.3987L0.00642942 49.2146C-0.0233571 51.4443 0.0955391 53.6736 0.362326 55.8876L29.5402 26.7097C30.3462 25.903 31.4397 25.4495 32.58 25.449C33.7204 25.4484 34.8143 25.9009 35.621 26.7069C36.4278 27.5129 36.8813 28.6064 36.8818 29.7468C36.8823 30.8871 36.4298 31.981 35.6238 32.7878L2.61448 65.8138C3.23851 67.6702 3.97198 69.4881 4.81102 71.2579L71.2523 4.7999C69.4826 3.96086 67.6647 3.22739 65.8082 2.60336V2.60336ZM18.9301 30.2909C18.1216 31.0944 17.0281 31.5453 15.8883 31.5453C14.7485 31.5453 13.655 31.0944 12.8465 30.2909V30.2909C12.043 29.4825 11.5921 28.3889 11.5921 27.2491C11.5921 26.1093 12.043 25.0158 12.8465 24.2073L25.414 11.6398C26.2225 10.8363 27.316 10.3854 28.4558 10.3854C29.5956 10.3854 30.6892 10.8363 31.4976 11.6398V11.6398C32.3011 12.4482 32.752 13.5418 32.752 14.6816C32.752 15.8214 32.3011 16.9149 31.4976 17.7234L18.9301 30.2909ZM46.1783 22.2499L43.7482 24.68C43.3488 25.0806 42.8743 25.3985 42.352 25.6157C41.8297 25.8329 41.2697 25.9451 40.704 25.9459C40.1383 25.9466 39.578 25.836 39.0551 25.6202C38.5322 25.4045 38.0568 25.0878 37.6563 24.6884C37.2557 24.2889 36.9378 23.8145 36.7206 23.2921C36.5034 22.7698 36.3912 22.2098 36.3904 21.6441C36.3897 21.0784 36.5003 20.5181 36.7161 19.9952C36.9319 19.4723 37.2485 18.997 37.648 18.5964L40.0781 16.1663C40.8848 15.3596 41.979 14.9064 43.1199 14.9064C44.2607 14.9064 45.3549 15.3596 46.1616 16.1663C46.9684 16.9731 47.4216 18.0672 47.4216 19.2081C47.4216 20.349 46.9684 21.4432 46.1616 22.2499H46.1783Z" fill="#188726"/>
<path d="M72.9586 17.0107C72.1552 16.2022 71.7042 15.1087 71.7042 13.9689C71.7042 12.8291 72.1552 11.7356 72.9586 10.9271L76.3396 7.5461C74.7118 6.52225 73.0259 5.59387 71.2903 4.76567L71.2514 4.80459L71.3904 4.87132L4.83796 71.3904L4.77123 71.2514L4.7323 71.2904C5.56051 73.0259 6.48888 74.7118 7.51273 76.3396L44.1422 39.7102C44.9507 38.9067 46.0442 38.4558 47.184 38.4558C48.3238 38.4558 49.4173 38.9067 50.2258 39.7102V39.7102C51.0292 40.5186 51.4802 41.6122 51.4802 42.752C51.4802 43.8918 51.0292 44.9853 50.2258 45.7938L12.7956 83.2573C13.3479 83.869 13.9189 84.4696 14.5083 85.0591C15.0978 85.6485 15.6983 86.2194 16.31 86.7718L28.227 74.8549C28.6264 74.4554 29.1006 74.1385 29.6226 73.9224C30.1445 73.7062 30.7039 73.5949 31.2688 73.5949C31.8337 73.5949 32.3931 73.7062 32.915 73.9224C33.4369 74.1385 33.9111 74.4554 34.3106 74.8549C34.71 75.2543 35.0269 75.7285 35.2431 76.2505C35.4592 76.7724 35.5705 77.3317 35.5705 77.8967C35.5705 78.4616 35.4592 79.021 35.2431 79.5429C35.0269 80.0648 34.71 80.539 34.3106 80.9385L23.2222 92.0213C24.85 93.0451 26.5359 93.9735 28.2715 94.8017L28.3104 94.7628L28.1714 94.6961L94.7016 28.1769L94.7683 28.3159L94.8073 28.277C93.979 26.5415 93.0507 24.8556 92.0268 23.2278L52.9673 62.2873C52.5678 62.6868 52.0936 63.0036 51.5717 63.2198C51.0498 63.436 50.4904 63.5473 49.9255 63.5473C49.3606 63.5473 48.8012 63.436 48.2793 63.2198C47.7574 63.0036 47.2831 62.6868 46.8837 62.2873C46.4842 61.8878 46.1674 61.4136 45.9512 60.8917C45.735 60.3698 45.6237 59.8104 45.6237 59.2455C45.6237 58.6806 45.735 58.1212 45.9512 57.5993C46.1674 57.0774 46.4842 56.6032 46.8837 56.2037L86.7774 16.31C86.225 15.6983 85.6541 15.0978 85.0646 14.5083C84.4752 13.9189 83.869 13.3479 83.2462 12.7956L79.0311 17.0107C78.2231 17.8108 77.1319 18.2596 75.9948 18.2596C74.8577 18.2596 73.7666 17.8108 72.9586 17.0107V17.0107ZM44.8484 70.3951L42.4183 72.8251C41.6116 73.6319 40.5174 74.0851 39.3765 74.0851C38.2356 74.0851 37.1415 73.6319 36.3347 72.8251C35.528 72.0184 35.0748 70.9242 35.0748 69.7834C35.0748 68.6425 35.528 67.5483 36.3347 66.7416L38.7593 64.3115C39.1587 63.912 39.6329 63.5951 40.1548 63.379C40.6768 63.1628 41.2361 63.0515 41.8011 63.0515C42.366 63.0515 42.9253 63.1628 43.4473 63.379C43.9692 63.5951 44.4434 63.912 44.8429 64.3115C45.2423 64.7109 45.5592 65.1851 45.7753 65.707C45.9915 66.229 46.1028 66.7883 46.1028 67.3533C46.1028 67.9182 45.9915 68.4776 45.7753 68.9995C45.5592 69.5214 45.2423 69.9956 44.8429 70.3951H44.8484ZM70.9344 19.0349C71.7379 19.8433 72.1888 20.9369 72.1888 22.0767C72.1888 23.2165 71.7379 24.31 70.9344 25.1184L58.3613 37.6971C57.5528 38.5006 56.4593 38.9515 55.3195 38.9515C54.1797 38.9515 53.0862 38.5006 52.2777 37.6971V37.6971C51.4743 36.8887 51.0233 35.7951 51.0233 34.6553C51.0233 33.5155 51.4743 32.422 52.2777 31.6135L64.8453 19.046C65.6538 18.2425 66.7473 17.7916 67.8871 17.7916C69.0269 17.7916 70.1204 18.2425 70.9289 19.046L70.9344 19.0349Z" fill="#F4D000"/>
<path d="M71.3904 4.888L71.2514 4.82127L4.79346 71.2514L4.86019 71.3904L71.3904 4.888Z" fill="#F4D000"/>
<path d="M33.7545 96.9649L38.6648 92.0546C39.4732 91.2512 40.5668 90.8002 41.7066 90.8002C42.8464 90.8002 43.9399 91.2512 44.7484 92.0546V92.0546C45.5518 92.8631 46.0028 93.9566 46.0028 95.0964C46.0028 96.2362 45.5518 97.3297 44.7484 98.1382L43.6807 99.2059C45.8946 99.4727 48.1239 99.5916 50.3537 99.5618L55.9702 93.9453C56.615 93.3062 57.4457 92.888 58.3431 92.7507C59.2405 92.6134 60.1583 92.7641 60.9647 93.1812C61.771 93.5983 62.4244 94.2602 62.8309 95.072C63.2374 95.8837 63.3761 96.8034 63.2271 97.6989C71.289 95.4169 78.6473 91.1435 84.6247 85.2721C90.602 79.4007 95.0063 72.12 97.432 64.1001C96.5127 64.4534 95.5 64.4802 94.5633 64.1761C93.6265 63.8721 92.8226 63.2556 92.286 62.4298C91.7493 61.604 91.5126 60.619 91.6152 59.6396C91.7178 58.6601 92.1537 57.7456 92.8499 57.049L99.5229 50.3759C99.5527 48.1461 99.4338 45.9168 99.167 43.7029L97.8269 45.043C97.0184 45.8465 95.9249 46.2974 94.7851 46.2974C93.6453 46.2974 92.5517 45.8465 91.7433 45.043V45.043C90.9398 44.2346 90.4889 43.141 90.4889 42.0012C90.4889 40.8614 90.9398 39.7679 91.7433 38.9594L96.8092 33.8935L96.926 33.7878C96.2931 31.9289 95.5503 30.1091 94.7017 28.3382L28.3104 94.7683C30.0802 95.6074 31.898 96.3408 33.7545 96.9649V96.9649ZM90.8368 71.2403L70.156 91.9156C69.7565 92.3151 69.2823 92.6319 68.7604 92.8481C68.2385 93.0643 67.6791 93.1756 67.1142 93.1756C66.5493 93.1756 65.9899 93.0643 65.468 92.8481C64.9461 92.6319 64.4718 92.3151 64.0724 91.9156C63.6729 91.5161 63.3561 91.0419 63.1399 90.52C62.9237 89.9981 62.8124 89.4387 62.8124 88.8738C62.8124 88.3089 62.9237 87.7495 63.1399 87.2276C63.3561 86.7057 63.6729 86.2315 64.0724 85.832L84.7533 65.1511C85.56 64.3444 86.6541 63.8912 87.795 63.8912C88.9359 63.8912 90.0301 64.3444 90.8368 65.1511C91.6436 65.9579 92.0968 67.052 92.0968 68.1929C92.0968 69.3338 91.6436 70.428 90.8368 71.2347V71.2403ZM46.7725 90.0249C45.9691 89.2164 45.5181 88.1229 45.5181 86.9831C45.5181 85.8433 45.9691 84.7498 46.7725 83.9413L83.6689 47.045C84.4774 46.2415 85.5709 45.7906 86.7107 45.7906C87.8505 45.7906 88.944 46.2415 89.7525 47.045V47.045C90.5559 47.8534 91.0069 48.9469 91.0069 50.0867C91.0069 51.2266 90.5559 52.3201 89.7525 53.1285L52.8561 90.0249C52.0476 90.8284 50.9541 91.2793 49.8143 91.2793C48.6745 91.2793 47.581 90.8284 46.7725 90.0249Z" fill="#317FDD"/>
<path d="M28.1936 94.7072L28.3326 94.7739L94.7683 28.3159L94.7016 28.1769L28.1936 94.7072Z" fill="#317FDD"/>
</g>
<defs>
<clipPath id="clip0">
<rect width="250" height="99.5618" fill="white"/>
</clipPath>
</defs>
</svg>
