<svg width="238" height="81" viewBox="0 0 238 81" fill="none" xmlns="http://www.w3.org/2000/svg">
<path d="M94.2148 43.7962V72.8791H87.0226V8.27484H94.2148V37.3577H110.075V8.27484H117.268V72.8791H110.075V43.7962H94.2148Z" fill="#2955A2"/>
<path d="M139.127 8.27484C149.177 8.27484 153.134 13.0801 153.134 22.565V25.6115C153.134 32.4268 151.187 36.6982 145.565 38.4256C151.847 40.1844 154.234 45.1467 154.234 52.2447V57.6781C154.234 67.3514 149.523 72.8162 139.472 72.8162H124.617V8.27484H139.127ZM137.399 35.6932C143.116 35.6932 146.068 33.8401 146.068 27.119V23.3502C146.068 17.6341 144.121 14.8703 138.97 14.8703H131.872V35.7246H137.399V35.6932ZM139.504 66.315C144.78 66.315 147.167 63.5512 147.167 57.5524V51.8364C147.167 44.6442 144.309 42.2258 138.122 42.2258H131.84V66.315H139.504Z" fill="#2955A2"/>
<path d="M188.781 23.7901V25.5489H181.966V23.4132C181.966 17.6029 179.768 14.1795 174.585 14.1795C169.403 14.1795 167.205 17.6029 167.205 23.319C167.205 37.7976 188.876 39.1795 188.876 57.3642C188.876 67.1318 184.165 73.5074 174.303 73.5074C164.441 73.5074 159.824 67.1318 159.824 57.3642V53.6582H166.545V57.7097C166.545 63.52 168.932 66.9433 174.114 66.9433C179.265 66.9433 181.683 63.52 181.683 57.7097C181.683 43.3253 160.107 41.9433 160.107 23.7587C160.107 13.8027 164.724 7.61548 174.397 7.61548C184.165 7.64689 188.781 13.9911 188.781 23.7901Z" fill="#2955A2"/>
<path d="M202.349 8.27484H195.157V72.8477H202.349V8.27484Z" fill="#2955A2"/>
<path d="M237.682 23.7901V25.5489H230.867V23.4132C230.867 17.6029 228.637 14.1795 223.486 14.1795C218.335 14.1795 216.106 17.6029 216.106 23.319C216.106 37.7976 237.776 39.1795 237.776 57.3642C237.776 67.1318 233.065 73.5074 223.204 73.5074C213.342 73.5074 208.725 67.1318 208.725 57.3642V53.6582H215.446V57.7097C215.446 63.52 217.833 66.9433 223.015 66.9433C228.166 66.9433 230.584 63.52 230.584 57.7097C230.584 43.3253 209.008 41.9433 209.008 23.7587C209.008 13.8027 213.624 7.61548 223.298 7.61548C233.065 7.64689 237.682 13.9911 237.682 23.7901Z" fill="#2955A2"/>
<path d="M30.4585 24.8896L20.2512 7.20746L11.1432 1.93108C5.17589 -1.52369 0.3078 1.30294 0.3078 8.18108V28.0617V49.6384H16.1683L30.4585 24.8896Z" fill="#2853A3"/>
<path d="M67.2363 34.3118L50.0252 24.3872C46.1307 22.1259 40.6031 18.9538 35.578 16.033C32.9398 14.494 30.4272 13.0493 28.3544 11.8558L20.2513 7.20758L30.4586 24.8897L44.7488 49.6699L49.1458 57.2704C49.4285 57.1133 49.7425 56.9249 49.9938 56.7679L62.3054 49.6385L67.2049 46.8118C73.2036 43.3885 73.2036 37.7666 67.2363 34.3118Z" fill="#0099A8"/>
<path d="M44.7802 49.6698H16.1684H0.3078V53.0932V72.9738C0.3078 74.2301 0.464836 75.3608 0.778906 76.3344C2.12941 80.6686 6.27514 82.0505 11.1432 79.2238L28.3543 69.2992C34.039 66.0329 43.147 60.7565 49.1458 57.2703L44.7802 49.6698Z" fill="#2474B6"/>
</svg>
