<svg width="500" height="500" viewBox="0 0 500 500" fill="none" xmlns="http://www.w3.org/2000/svg">
<rect width="500" height="500" fill="white"/>
<path d="M371.132 309.579L366.781 304.485L351.801 317.278L356.152 322.373L371.132 309.579Z" fill="black"/>
<path d="M131.523 383.296H122.967V326.335H135.271L143.265 367.182L150.948 326.335H162.783V383.296H154.195V347.508L146.763 383.296H139.861L131.523 347.602V383.296ZM181.083 370.211L178.991 383.296H170.059L179.709 326.335H191.545L201.069 383.296H192.076L190.046 370.211H181.083ZM185.58 339.389L182.395 361.842H188.765L185.58 339.389ZM221.868 326.335C226.656 326.335 230.164 327.657 232.392 330.301C234.37 332.612 235.358 335.818 235.358 339.919V348.195C235.358 352.234 233.828 355.638 230.768 358.407L237.139 383.296H227.864L222.617 361.779C222.367 361.8 222.107 361.811 221.837 361.811H216.902V383.296H208.346V326.335H221.868ZM226.989 340.076C226.989 336.765 225.355 335.11 222.086 335.11H216.902V353.317H222.086C223.46 353.317 224.616 352.838 225.553 351.88C226.51 350.902 226.989 349.736 226.989 348.382V340.076ZM253.128 383.296H244.571V326.335H253.128V383.296ZM270.522 326.335L281.889 364.59V326.335H290.477V383.296H281.265L269.429 346.821V383.296H260.872V326.335H270.522ZM311.65 384.014C307.861 384.014 304.644 382.682 302 380.017C299.356 377.352 298.034 374.156 298.034 370.43V339.232C298.034 335.464 299.367 332.258 302.032 329.614C304.696 326.949 307.903 325.617 311.65 325.617C315.439 325.617 318.645 326.949 321.268 329.614C323.912 332.279 325.234 335.485 325.234 339.232V345.728H316.334V339.076C316.334 337.702 315.845 336.536 314.867 335.579C313.909 334.6 312.743 334.111 311.369 334.111C310.016 334.111 308.86 334.6 307.903 335.579C306.945 336.536 306.466 337.702 306.466 339.076V370.336C306.466 371.71 306.945 372.876 307.903 373.834C308.86 374.791 310.016 375.27 311.369 375.27C312.743 375.27 313.909 374.791 314.867 373.834C315.845 372.876 316.334 371.71 316.334 370.336V359.125H311.556V350.537H325.234V370.43C325.234 374.219 323.902 377.435 321.237 380.079C318.572 382.703 315.377 384.014 311.65 384.014ZM342.16 370.211L340.068 383.296H331.137L340.786 326.335H352.622L362.147 383.296H353.153L351.123 370.211H342.16ZM346.657 339.389L343.472 361.842H349.843L346.657 339.389Z" fill="black"/>
<path d="M141.718 310.978V280.451H159.292V282.123H143.442V294.642H158.451V296.314H143.442V310.978H141.718ZM187.533 310.978H185.725L182.067 300.816C181.535 299.33 180.82 298.344 179.923 297.858C179.054 297.343 177.751 297.086 176.013 297.086H166.722V310.978H164.998V280.451H176.139C179.222 280.451 181.605 281.166 183.286 282.595C184.968 283.995 185.809 286.025 185.809 288.683C185.809 290.655 185.29 292.299 184.253 293.613C183.244 294.928 181.801 295.843 179.923 296.357C180.792 296.5 181.535 296.886 182.151 297.515C182.768 298.115 183.272 299.001 183.665 300.173L187.533 310.978ZM176.181 295.371C178.732 295.371 180.652 294.8 181.941 293.656C183.258 292.513 183.917 290.841 183.917 288.64C183.917 284.295 181.338 282.123 176.181 282.123H166.764V295.371H176.181ZM205.389 311.321C202.726 311.321 200.4 310.692 198.41 309.434C196.448 308.176 194.934 306.376 193.869 304.032C192.832 301.688 192.313 298.916 192.313 295.714C192.313 292.513 192.832 289.74 193.869 287.397C194.934 285.053 196.448 283.252 198.41 281.994C200.371 280.737 202.698 280.108 205.389 280.108C208.079 280.108 210.406 280.737 212.368 281.994C214.358 283.252 215.871 285.053 216.908 287.397C217.973 289.712 218.506 292.47 218.506 295.671C218.506 298.873 217.973 301.659 216.908 304.032C215.871 306.376 214.358 308.176 212.368 309.434C210.406 310.692 208.079 311.321 205.389 311.321ZM205.389 309.563C208.92 309.563 211.667 308.348 213.629 305.918C215.591 303.489 216.572 300.073 216.572 295.671C216.572 291.27 215.591 287.868 213.629 285.467C211.695 283.066 208.948 281.866 205.389 281.866C201.829 281.866 199.068 283.081 197.106 285.51C195.172 287.911 194.205 291.298 194.205 295.671C194.205 300.045 195.186 303.46 197.148 305.918C199.11 308.348 201.857 309.563 205.389 309.563ZM246.708 280.451H248.347V310.978H246.918L227.074 283.495V310.978H225.434V280.451H226.905L246.708 307.848V280.451ZM263.956 310.978V282.08H252.941V280.451H276.737V282.08H265.68V310.978H263.956ZM291.823 310.978V280.451H293.547V310.978H291.823ZM322.992 280.451H324.631V310.978H323.202L303.358 283.495V310.978H301.718V280.451H303.19L322.992 307.848V280.451Z" fill="black"/>
<path d="M206 298.7C207.767 298.7 209.2 297.267 209.2 295.5C209.2 293.733 207.767 292.3 206 292.3C204.233 292.3 202.8 293.733 202.8 295.5C202.8 297.267 204.233 298.7 206 298.7Z" fill="black"/>
<path d="M249.9 111L301.1 243.6H198.7L249.9 111Z" fill="black"/>
<path d="M197.9 176.4L223.8 243.6H172L197.9 176.4Z" fill="black"/>
<path d="M301.9 176.4L327.8 243.6H276L301.9 176.4Z" fill="black"/>
</svg>
