<svg width="210" height="103" viewBox="0 0 210 103" fill="none" xmlns="http://www.w3.org/2000/svg">
<path fill-rule="evenodd" clip-rule="evenodd" d="M66.312 68.2269H83.8297C87.8723 68.2269 90.9929 67.234 93.3333 65.461C95.3191 63.9716 97.7304 60.922 97.7304 57.5177V56.0993C97.7304 54.4681 96.4538 52.9787 95.39 52.1986C94.1134 51.2057 91.4893 50.7092 90.9929 50.3546C93.1914 50.2837 95.9574 48.3688 97.3758 47.3049C99.007 46.0284 100.284 43.4752 100.284 40.6383V40.4964C100.284 35.8865 95.1063 33.9716 90.2127 33.9716H73.5461L66.312 68.2269ZM79.929 47.8014H84.3971C87.8723 47.8014 90.4255 46.5248 90.4255 43.1915V42.5532C90.4255 40.7801 88.6524 40.1418 86.7375 40.1418H81.5602L79.929 47.8014ZM77.0212 61.4184V62.0567H81.3475C85.1063 62.0567 88.0141 60.9929 88.0141 57.3049V56.0284C88.0141 54.9645 85.8156 53.9716 84.6808 53.9716H78.6524C78.6524 54.6099 78.0851 57.0213 77.9432 57.7305C77.8014 58.0142 77.0212 61.3475 77.0212 61.4184Z" fill="#007DC5"/>
<path fill-rule="evenodd" clip-rule="evenodd" d="M100.922 68.2269H110.496L113.333 54.8227H117.163C120.213 54.8227 121.56 55.5319 121.135 58.9362C120.851 61.2766 120.496 63.9007 120.496 66.4539V68.2269H130.709L130.638 65.8156L130.993 55.9574V55.0354C130.993 53.0496 128.44 51.5603 126.241 51.5603H124.965V51.2766C130.426 50.8511 135.319 47.234 135.319 41.4184V40C135.319 36.0284 131.773 34.1135 127.801 34.1135H108.085L100.922 68.2269ZM114.752 48.6525H119.574C121.56 48.6525 122.553 48.5106 123.759 47.5886C124.539 47.0213 125.603 45.461 125.603 44.1844V42.7659C125.603 40.4964 122.27 40.2128 119.858 40.2128H116.383L114.752 48.6525Z" fill="#007DC5"/>
<path fill-rule="evenodd" clip-rule="evenodd" d="M132.695 68.2269H142.199L145.957 61.4184H159.787L160.638 68.2979H171.489C170.851 65.6738 170.284 62.4823 169.858 59.7163C169.433 57.234 168.44 53.4752 168.298 51.0638C168.156 48.7943 167.163 44.7518 166.738 42.4113C166.454 41.0638 166.17 39.3617 165.957 38.0851C165.816 37.234 165.532 33.9716 164.823 33.9716H153.83C153.262 33.9716 144.397 49.2198 143.262 50.9929C142.34 52.4113 141.631 53.8298 140.709 55.3191C139.858 56.7376 138.865 58.156 138.014 59.6454C136.312 62.5532 134.255 65.3191 132.695 68.2269ZM149.645 54.9645L158.936 55.0355L157.447 40.5674L149.645 54.9645Z" fill="#007DC5"/>
<path fill-rule="evenodd" clip-rule="evenodd" d="M144.681 0.638306H80.5674L78.156 11.7731H141.986C142.695 11.7731 143.333 7.23405 143.404 6.38299C143.617 5.03547 144.681 1.77306 144.681 0.638306Z" fill="#007DC5"/>
<path fill-rule="evenodd" clip-rule="evenodd" d="M59.2908 101.56H123.475L125.816 90.4255H61.7021L59.2908 101.56Z" fill="#007DC5"/>
<path fill-rule="evenodd" clip-rule="evenodd" d="M74.6809 28.3688H138.865C138.865 27.3759 139.716 23.7589 139.929 22.766C140.071 22.0568 141.56 17.3759 140.426 17.3759H76.9504L74.6809 28.3688Z" fill="#007DC5"/>
<path fill-rule="evenodd" clip-rule="evenodd" d="M62.766 84.8227H126.879L129.149 73.8298H65.1773L62.766 84.8227Z" fill="#007DC5"/>
<path fill-rule="evenodd" clip-rule="evenodd" d="M208.44 34.2553V33.9716H182.411L175.177 68.2269H201.348L202.837 61.5603H186.241V61.0638C186.241 59.2198 187.447 56.383 187.518 54.1844H203.121V53.6879C203.121 52.4823 204.255 49.2908 204.397 47.6596H189.078L190.497 40.6383H206.95L208.44 34.2553Z" fill="#007DC5"/>
<path fill-rule="evenodd" clip-rule="evenodd" d="M42.1277 34.7518L34.8937 68.2269H61.1348L62.4823 61.5603H45.8157L47.1632 54.2553H62.6951L64.0426 47.7305H48.7235L50.2128 40.7092V40.2128L52.9079 40.4255L64.5391 40.3546L66.3121 40.1418C66.454 39.5035 66.6667 37.7305 66.8795 37.234C67.2341 36.5248 67.4469 35.3901 67.4469 34.3972H43.1915C42.8369 34.4681 42.4114 34.6099 42.1277 34.7518Z" fill="#007DC5"/>
<path fill-rule="evenodd" clip-rule="evenodd" d="M42.1276 34.7518C42.4823 34.6099 42.9078 34.4681 43.2624 34.4681H67.5177C67.5177 35.461 67.3049 36.5957 66.9503 37.305C66.7376 37.8014 66.5248 39.5745 66.383 40.2128L64.6099 40.4255L52.9787 40.4965L50.2837 40.2837V40.7801H66.7376L68.0142 34.1135H42.5532C42.0567 33.9716 42.1276 34.2553 42.1276 34.7518Z" fill="#007DC5"/>
<path fill-rule="evenodd" clip-rule="evenodd" d="M4.75179 45.6028V46.7376C4.75179 50.7801 8.51065 52.1986 11.5603 53.3333C12.9787 53.8298 15.2482 54.3262 16.8085 54.7517C19.7163 55.5319 19.4326 55.2482 21.6312 56.7376C21.6312 58.7234 21.7731 60.0709 20.3546 61.2057C19.2199 62.1276 17.8014 62.6241 15.7447 62.6241C13.5461 62.6241 10.9929 61.773 10.9929 59.7872V57.3759H1.5603L1.27661 59.4326V61.4893C1.27661 66.4539 7.51775 69.0071 12.766 69.0071H14.3263C19.078 69.0071 23.3333 67.8723 26.0993 65.9574C28.4397 64.3971 31.844 60.6383 31.844 56.8794V54.4681C31.844 50.922 27.2341 48.7943 24.3263 48.156C22.4823 47.7305 20.7092 47.1631 18.9362 46.6666C17.2341 46.1702 14.8936 45.9574 14.8936 43.6879V43.5461C14.8936 40.7092 17.5887 39.2198 20.4965 39.2198H20.9929C22.1986 39.2198 23.8298 40.3546 23.8298 41.6312V43.1915C23.8298 43.617 23.7589 43.617 23.688 43.9716H33.1206C33.8298 43.9716 33.7589 42.1986 33.7589 41.4184V40.4964C33.7589 35.1064 28.4397 33.1915 22.9078 33.1915H20.3546C12.6951 33.1915 4.75179 38.156 4.75179 45.6028Z" fill="#007DC5"/>
</svg>
