<svg width="250" height="48" viewBox="0 0 250 48" fill="none" xmlns="http://www.w3.org/2000/svg">
<g clip-path="url(#clip0)">
<path d="M88.0045 5.25616V8.87383H79.8934V14.2813H88.0045V17.8609H79.8934V23.2683H88.0045V26.886H76.3138V5.25616H88.0045Z" fill="#C8B594"/>
<path d="M111.006 16.5281C111.843 15.3095 112.3 13.9386 112.3 12.4534C112.3 10.4732 111.577 8.79767 110.168 7.38868C108.759 5.9797 107.045 5.25616 105.103 5.25616H96.535V26.886H100.115V23.4968V19.6888V16.033V11.2729V8.87383H105.103C106.093 8.87383 106.931 9.21656 107.616 9.94009C108.34 10.6636 108.683 11.5014 108.683 12.4534C108.683 13.4435 108.34 14.3194 107.616 15.0048C106.893 15.7284 106.055 16.0711 105.103 16.0711H101.942L108.15 26.8479H112.3L107.845 19.0795C109.102 18.5844 110.168 17.7466 111.006 16.5281Z" fill="#C8B594"/>
<path d="M135.149 16.5281C135.986 15.3095 136.443 13.9386 136.443 12.4534C136.443 10.4732 135.72 8.79767 134.311 7.38868C132.902 5.9797 131.188 5.25616 129.246 5.25616H120.678V26.886H124.258V23.4968V19.6888V16.033V11.2729V8.87383H129.246C130.236 8.87383 131.074 9.21656 131.759 9.94009C132.483 10.6636 132.826 11.5014 132.826 12.4534C132.826 13.4435 132.483 14.3194 131.759 15.0048C131.036 15.7284 130.198 16.0711 129.246 16.0711H126.085L132.331 26.886H136.481L132.026 19.1175C133.283 18.5844 134.311 17.7466 135.149 16.5281Z" fill="#C8B594"/>
<path d="M162.529 26.848H166.566L155.751 5.25616L144.936 26.848H148.972L155.751 13.3293L162.529 26.848Z" fill="#C8B594"/>
<path d="M197.259 5.25616H200.838V26.886H197.259V5.25616Z" fill="#008AAA"/>
<path d="M209.216 5.25616H227.266V8.87383H220.069V26.886H216.451V8.87383H209.216V5.25616Z" fill="#008AAA"/>
<path d="M241.927 17.8609C240.176 17.8609 238.69 17.2516 237.472 16.033C236.253 14.8144 235.644 13.3293 235.644 11.5395C235.644 9.82586 236.253 8.34071 237.472 7.12212C238.69 5.86546 240.176 5.25616 241.927 5.25616H247.678V8.87384H241.927C241.546 8.87384 241.204 8.95 240.861 9.06425C240.518 9.21657 240.252 9.40697 239.985 9.63546C239.719 9.86394 239.528 10.1686 239.414 10.5113C239.3 10.854 239.224 11.1968 239.224 11.5395C239.224 12.3011 239.49 12.9485 239.985 13.4816C240.518 14.0148 241.166 14.2813 241.927 14.2813H243.679C245.431 14.2813 246.916 14.8906 248.135 16.1092C249.391 17.3278 250.001 18.8129 250.001 20.5647C250.001 22.2783 249.391 23.7634 248.135 25.0201C246.916 26.2387 245.431 26.848 243.679 26.848C243.679 26.848 242.384 26.848 241.927 26.848C241.013 26.848 239.871 26.6957 238.462 25.8198C237.015 24.9059 236.253 23.2303 236.253 23.2303H243.679C244.06 23.2303 244.403 23.1541 244.745 23.0399C245.088 22.8876 245.355 22.7353 245.621 22.4687C245.85 22.2402 246.078 21.9356 246.192 21.6309C246.345 21.2882 246.383 20.9455 246.383 20.5647C246.383 19.8411 246.116 19.1937 245.583 18.6606C245.05 18.1275 244.441 17.8609 243.679 17.8609H241.927Z" fill="#008AAA"/>
<path d="M59.8633 17.8609C58.1116 17.8609 56.6265 17.2516 55.4079 16.033C54.1893 14.8144 53.58 13.3293 53.58 11.5395C53.58 9.82586 54.1893 8.34071 55.4079 7.12212C56.6265 5.86546 58.1116 5.25616 59.8633 5.25616H65.6135V8.87384H59.8633C59.4825 8.87384 59.1398 8.95 58.7971 9.06425C58.4544 9.21657 58.1878 9.40697 57.9212 9.63546C57.6547 9.86394 57.4643 10.1686 57.35 10.5113C57.2358 10.854 57.1596 11.1968 57.1596 11.5395C57.1596 12.3011 57.4262 12.9485 57.9212 13.4816C58.4544 14.0148 59.1017 14.2813 59.8633 14.2813H61.6151C63.3668 14.2813 64.8519 14.8906 66.0705 16.1092C67.3272 17.3278 67.9365 18.8129 67.9365 20.5647C67.9365 22.2783 67.3272 23.7634 66.0705 25.0201C64.8519 26.2387 63.3668 26.848 61.6151 26.848C61.6151 26.848 60.3203 26.848 59.8633 26.848C58.9494 26.848 57.807 26.6957 56.398 25.8198C54.9509 24.9059 54.1893 23.2303 54.1893 23.2303H61.6151C61.9959 23.2303 62.3386 23.1541 62.6813 23.0399C63.0241 22.8876 63.2906 22.7353 63.5572 22.4687C63.7857 22.2402 64.0141 21.9356 64.1284 21.6309C64.2807 21.2882 64.3188 20.9455 64.3188 20.5647C64.3188 19.8411 64.0522 19.1937 63.5191 18.6606C62.986 18.1275 62.3767 17.8609 61.6151 17.8609H59.8633Z" fill="#C8B594"/>
<path d="M188.842 11.5386C188.842 10.7008 188.69 9.86302 188.347 9.10141C188.005 8.33979 187.548 7.65433 186.976 7.08312C186.405 6.51191 185.72 6.05494 184.958 5.71221C184.196 5.36949 183.359 5.21716 182.559 5.21716H174.981V26.8471H182.559C183.397 26.8471 184.235 26.6947 184.996 26.352C185.758 26.0093 186.443 25.5523 187.014 24.9811C187.586 24.4099 188.043 23.7244 188.385 22.9628C188.728 22.2012 188.88 21.3634 188.88 20.5256C188.88 18.7358 188.233 17.2507 186.976 15.994C188.195 14.8135 188.842 13.2903 188.842 11.5386ZM184.463 18.6597C184.692 18.9263 184.882 19.1928 185.034 19.5355C185.187 19.8783 185.225 20.221 185.225 20.5637C185.225 20.9065 185.148 21.2492 185.034 21.5919C184.92 21.9346 184.692 22.2012 184.463 22.4678C184.196 22.6963 183.93 22.9247 183.587 23.039C183.244 23.1532 182.902 23.2294 182.559 23.2294H178.561V20.678V17.8219V14.2423V11.0816V8.83484H182.559C182.902 8.83484 183.244 8.911 183.587 9.02524C183.93 9.17757 184.196 9.36797 184.463 9.59646C184.73 9.82494 184.92 10.1296 185.034 10.4723C185.187 10.815 185.225 11.1578 185.225 11.5005C185.225 11.8813 185.148 12.224 185.034 12.5668C184.92 12.9095 184.692 13.1761 184.463 13.4426C184.196 13.7092 181.912 16.0321 181.912 16.0321C181.912 16.0702 184.235 18.4312 184.463 18.6597Z" fill="#008AAA"/>
<path d="M69.6121 41.8518L69.6502 37.4725C69.6502 37.4344 69.6502 37.4344 69.6883 37.3964C69.7264 37.3583 69.7264 37.3583 69.7644 37.3583H69.9929C70.031 37.3583 70.031 37.3583 70.0691 37.3964C70.0691 37.3964 70.1072 37.4344 70.1072 37.4725L70.1452 41.8518C70.1452 41.8899 70.1452 41.8899 70.1072 41.928C70.0691 41.9661 70.0691 41.9661 70.031 41.9661H69.6883C69.6502 41.9661 69.6502 41.9661 69.6121 41.928C69.6121 41.928 69.6121 41.8899 69.6121 41.8518Z" fill="#008AAA"/>
<path d="M75.781 41.8518C75.781 41.8899 75.781 41.8899 75.7429 41.928C75.7048 41.9661 75.7048 41.9661 75.6667 41.9661H75.2098C75.1717 41.9661 75.1717 41.9661 75.1336 41.9661L75.0955 41.928L72.7345 38.2341C72.7345 38.1961 72.6965 38.1961 72.6584 38.1961C72.6203 38.1961 72.6203 38.2341 72.6203 38.2341L72.6584 41.8518C72.6584 41.8899 72.6584 41.8899 72.6203 41.928C72.5822 41.9661 72.5822 41.9661 72.5441 41.9661H72.2395C72.2014 41.9661 72.2014 41.9661 72.1633 41.928C72.1252 41.8899 72.1252 41.8899 72.1252 41.8518L72.1633 37.4725C72.1633 37.4344 72.1633 37.4344 72.2014 37.3964C72.2395 37.3583 72.2395 37.3583 72.2776 37.3583H72.6584C72.6965 37.3583 72.7345 37.3583 72.7345 37.3964L75.1336 41.0521C75.1336 41.0902 75.1717 41.0902 75.2098 41.0902C75.2478 41.0902 75.2478 41.0521 75.2478 41.014L75.2859 37.4725C75.2859 37.4344 75.2859 37.4344 75.324 37.3964C75.3621 37.3583 75.3621 37.3583 75.4002 37.3583H75.6286C75.6667 37.3583 75.6667 37.3583 75.7048 37.3964C75.7048 37.3964 75.7429 37.4344 75.7429 37.4725L75.781 41.8518Z" fill="#008AAA"/>
<path d="M80.998 37.7391C80.998 37.7772 80.998 37.7772 80.9599 37.8152C80.9599 37.8533 80.9218 37.8533 80.8837 37.8533H79.589C79.5509 37.8533 79.5509 37.8533 79.5128 37.8914C79.5128 37.8914 79.4748 37.9295 79.4748 37.9676L79.5128 41.8899C79.5128 41.928 79.5128 41.928 79.4748 41.966C79.4367 42.0041 79.4367 42.0041 79.3986 42.0041H79.094C79.0559 42.0041 79.0559 42.0041 79.0178 41.966C78.9797 41.928 78.9797 41.928 78.9797 41.8899L79.0178 37.9676C79.0178 37.9295 79.0178 37.9295 78.9797 37.8914C78.9797 37.8914 78.9416 37.8533 78.9036 37.8533H77.685C77.6469 37.8533 77.6469 37.8533 77.6088 37.8152C77.6088 37.8152 77.5707 37.7772 77.5707 37.7391V37.4725C77.5707 37.4344 77.5707 37.4344 77.6088 37.3964C77.6088 37.3964 77.6469 37.3583 77.685 37.3583H80.9218C80.9599 37.3583 80.9599 37.3583 80.998 37.3964C80.998 37.3964 81.0361 37.4344 81.0361 37.4725L80.998 37.7391Z" fill="#008AAA"/>
<path d="M85.8344 41.8518C85.8344 41.8899 85.8344 41.928 85.7963 41.928C85.7583 41.9661 85.7583 41.9661 85.7202 41.9661H82.9022C82.8641 41.9661 82.826 41.9661 82.826 41.928C82.788 41.8899 82.788 41.8899 82.788 41.8518L82.826 37.4725C82.826 37.4344 82.826 37.4344 82.8641 37.3964C82.8641 37.3583 82.9022 37.3583 82.9403 37.3583H85.6821C85.7202 37.3583 85.7202 37.3583 85.7583 37.3964C85.7583 37.3964 85.7963 37.4344 85.7963 37.4725V37.7391C85.7963 37.7772 85.7963 37.7772 85.7583 37.8152C85.7583 37.8533 85.7202 37.8533 85.6821 37.8533H83.3973C83.3592 37.8533 83.3592 37.8533 83.3211 37.8914C83.3211 37.8914 83.283 37.9295 83.283 37.9676V39.2242C83.283 39.2623 83.283 39.2623 83.3211 39.3004C83.3211 39.3004 83.3592 39.3385 83.3973 39.3385H85.4917C85.5298 39.3385 85.5298 39.3385 85.5679 39.3766C85.5679 39.3766 85.6059 39.4146 85.6059 39.4527V39.7193C85.6059 39.7574 85.6059 39.7574 85.5679 39.7955C85.5679 39.7955 85.5298 39.8335 85.4917 39.8335H83.3973C83.3592 39.8335 83.3592 39.8335 83.3211 39.8716C83.3211 39.8716 83.283 39.9097 83.283 39.9478V41.471C83.283 41.5091 83.283 41.5091 83.3211 41.5472C83.3211 41.5472 83.3592 41.5852 83.3973 41.5852H85.7202C85.7583 41.5852 85.7963 41.5853 85.7963 41.6233C85.8344 41.6233 85.8344 41.6614 85.8344 41.6995V41.8518Z" fill="#008AAA"/>
<path d="M90.7086 41.8518C90.7086 41.8899 90.7086 41.8899 90.6705 41.928C90.6324 41.9661 90.6324 41.9661 90.5943 41.9661H87.7765C87.7384 41.9661 87.7384 41.9661 87.7003 41.928C87.6622 41.8899 87.6622 41.8899 87.6622 41.8518L87.7003 37.4725C87.7003 37.4344 87.7003 37.4344 87.7384 37.3964C87.7765 37.3583 87.7765 37.3583 87.8146 37.3583H88.043C88.0811 37.3583 88.0811 37.3583 88.1192 37.3964C88.1192 37.3964 88.1573 37.4344 88.1573 37.4725L88.1953 41.3568C88.1953 41.3948 88.1953 41.3948 88.2334 41.4329C88.2334 41.4329 88.2715 41.471 88.3096 41.471H90.6324C90.6705 41.471 90.6705 41.471 90.7086 41.5091C90.7086 41.5091 90.7467 41.5472 90.7467 41.5852L90.7086 41.8518Z" fill="#008AAA"/>
<path d="M92.6511 41.8518L92.6892 37.4725C92.6892 37.4344 92.6892 37.4344 92.7273 37.3964C92.7654 37.3583 92.7654 37.3583 92.8035 37.3583H93.032C93.07 37.3583 93.07 37.3583 93.1081 37.3964C93.1081 37.3964 93.1462 37.4344 93.1462 37.4725L93.1843 41.8518C93.1843 41.8899 93.1843 41.8899 93.1462 41.928C93.1081 41.9661 93.1081 41.9661 93.07 41.9661H92.7654C92.7273 41.9661 92.7273 41.9661 92.6892 41.928C92.6511 41.928 92.6511 41.8899 92.6511 41.8518Z" fill="#008AAA"/>
<path d="M99.5435 39.9468C99.5435 40.2514 99.4674 40.518 99.3531 40.7465C99.2389 41.0131 99.0866 41.2415 98.8962 41.432C98.7058 41.6224 98.4773 41.7747 98.2107 41.8889C97.9441 42.0032 97.6776 42.0412 97.3729 42.0412C97.0683 42.0412 96.7636 41.9651 96.4971 41.8508C96.2305 41.7366 96.002 41.5462 95.8116 41.3558C95.6212 41.1273 95.4689 40.8988 95.3547 40.5942C95.2404 40.2895 95.2023 39.9849 95.2023 39.6421C95.2023 39.3375 95.2404 39.0329 95.3547 38.7282C95.4689 38.4616 95.6212 38.1951 95.8116 38.0047C96.002 37.8143 96.2305 37.6239 96.4971 37.5096C96.7636 37.3954 97.0683 37.3192 97.3729 37.3192C97.6014 37.3192 97.8299 37.3573 98.0203 37.4335C98.2107 37.5096 98.4011 37.5858 98.5915 37.7C98.7438 37.8143 98.8962 37.9666 99.0485 38.1189C99.1627 38.2712 99.277 38.4616 99.3531 38.614C99.3531 38.652 99.3531 38.652 99.3531 38.6901C99.3531 38.6901 99.3531 38.7282 99.315 38.7282L99.277 38.7663H99.2389H98.9723C98.9342 38.7663 98.8962 38.7282 98.8581 38.6901C98.7819 38.5378 98.7057 38.4236 98.5915 38.3093C98.4773 38.1951 98.363 38.1189 98.2488 38.0428C98.1345 37.9666 97.9822 37.9285 97.8299 37.8904C97.6776 37.8523 97.5252 37.8143 97.3729 37.8143C97.1444 37.8143 96.916 37.8523 96.6875 37.9666C96.4971 38.0428 96.3067 38.1951 96.1543 38.3474C96.002 38.4997 95.8878 38.6901 95.8116 38.9186C95.7355 39.1471 95.6974 39.3756 95.6974 39.6421C95.6974 39.9087 95.7355 40.1753 95.8116 40.4038C95.8878 40.6323 96.002 40.8607 96.1543 41.0131C96.3067 41.2035 96.4971 41.3177 96.6875 41.432C96.8779 41.5462 97.1064 41.5843 97.3729 41.5843C97.5633 41.5843 97.7157 41.5462 97.9061 41.5081C98.0584 41.432 98.2107 41.3558 98.363 41.2415C98.5153 41.1273 98.6296 41.0131 98.7058 40.8988C98.82 40.7846 98.8961 40.6323 98.9342 40.4799C98.9342 40.4419 98.9342 40.4038 98.9342 40.3657C98.9342 40.3276 98.8962 40.3276 98.8581 40.3276H97.7918C97.7537 40.3276 97.7537 40.3276 97.7157 40.2895C97.6776 40.2514 97.6776 40.2514 97.6776 40.2134V39.9468C97.6776 39.9087 97.6776 39.9087 97.7157 39.8706C97.7537 39.8326 97.7537 39.8326 97.7918 39.8326H99.4293C99.4674 39.8326 99.4674 39.8326 99.5054 39.8706C99.5435 39.8706 99.5435 39.9087 99.5435 39.9468Z" fill="#008AAA"/>
<path d="M104.418 41.8513C104.418 41.8894 104.418 41.9275 104.38 41.9275C104.342 41.9656 104.342 41.9656 104.304 41.9656H101.486C101.448 41.9656 101.448 41.9656 101.41 41.9275C101.371 41.8894 101.371 41.8894 101.371 41.8513L101.41 37.472C101.41 37.4339 101.41 37.4339 101.448 37.3958C101.448 37.3578 101.486 37.3578 101.524 37.3578H104.266C104.304 37.3578 104.304 37.3578 104.342 37.3958C104.342 37.3958 104.38 37.4339 104.38 37.472V37.7386C104.38 37.7766 104.38 37.7767 104.342 37.8147C104.342 37.8528 104.304 37.8528 104.266 37.8528H101.981C101.943 37.8528 101.943 37.8528 101.905 37.8909C101.905 37.8909 101.866 37.929 101.866 37.9671V39.2237C101.866 39.2618 101.867 39.2618 101.905 39.2999C101.905 39.2999 101.943 39.338 101.981 39.338H104.075C104.113 39.338 104.113 39.338 104.151 39.3761C104.151 39.3761 104.189 39.4141 104.189 39.4522V39.7188C104.189 39.7569 104.189 39.7569 104.151 39.7949C104.151 39.7949 104.113 39.833 104.075 39.833H101.981C101.943 39.833 101.943 39.833 101.905 39.8711C101.905 39.8711 101.866 39.9092 101.866 39.9473V41.4705C101.866 41.5086 101.867 41.5086 101.905 41.5467C101.905 41.5467 101.943 41.5848 101.981 41.5848H104.304C104.342 41.5848 104.38 41.5848 104.38 41.6228C104.418 41.6228 104.418 41.6609 104.418 41.699V41.8513ZM103.771 36.8627C103.809 36.9008 103.809 36.9389 103.809 36.9769C103.809 37.015 103.771 37.015 103.732 37.015H103.504C103.466 37.015 103.428 37.015 103.428 36.9769L103.047 36.3677L103.009 36.3296C103.009 36.3296 102.971 36.3296 102.971 36.3677L102.59 36.9769C102.552 37.015 102.552 37.015 102.476 37.015H102.247C102.209 37.015 102.171 37.015 102.171 36.9769C102.171 36.9389 102.171 36.9008 102.209 36.8627L102.819 36.2153C102.857 36.1772 102.857 36.1772 102.895 36.1772H103.085C103.123 36.1772 103.123 36.1772 103.161 36.2153L103.771 36.8627Z" fill="#008AAA"/>
<path d="M109.94 41.8518C109.94 41.8899 109.94 41.8899 109.902 41.928C109.864 41.9661 109.864 41.9661 109.826 41.9661H109.369C109.33 41.9661 109.33 41.9661 109.292 41.9661L109.254 41.928L106.893 38.2341C106.893 38.1961 106.855 38.1961 106.817 38.1961C106.779 38.1961 106.779 38.2341 106.779 38.2341L106.817 41.8518C106.817 41.8899 106.817 41.8899 106.779 41.928C106.741 41.9661 106.741 41.9661 106.703 41.9661H106.398C106.36 41.9661 106.36 41.9661 106.322 41.928C106.284 41.8899 106.284 41.8899 106.284 41.8518L106.322 37.4725C106.322 37.4344 106.322 37.4344 106.36 37.3964C106.398 37.3583 106.398 37.3583 106.436 37.3583H106.817C106.855 37.3583 106.893 37.3583 106.893 37.3964L109.292 41.0521C109.292 41.0902 109.33 41.0902 109.369 41.0902C109.407 41.0902 109.407 41.0521 109.407 41.014L109.445 37.4725C109.445 37.4344 109.445 37.4344 109.483 37.3964C109.521 37.3583 109.521 37.3583 109.559 37.3583H109.787C109.826 37.3583 109.826 37.3583 109.864 37.3964C109.864 37.3964 109.902 37.4344 109.902 37.4725L109.94 41.8518Z" fill="#008AAA"/>
<path d="M116.033 40.519C115.956 40.7475 115.88 40.9379 115.728 41.1283C115.614 41.3187 115.461 41.471 115.271 41.6233C115.081 41.7757 114.89 41.8518 114.662 41.928C114.433 42.0041 114.205 42.0422 113.938 42.0422C113.71 42.0422 113.519 42.0041 113.291 41.9661C113.1 41.8899 112.91 41.8137 112.758 41.7376C112.605 41.6233 112.453 41.5091 112.339 41.3568C112.225 41.2044 112.11 41.0521 112.034 40.8617C111.958 40.6713 111.882 40.519 111.844 40.3286C111.806 40.1382 111.768 39.9478 111.768 39.7193C111.768 39.3766 111.806 39.0719 111.92 38.8054C112.034 38.5007 112.186 38.2722 112.377 38.0437C112.567 37.8152 112.796 37.6629 113.062 37.5487C113.329 37.4344 113.634 37.3583 113.976 37.3583C114.205 37.3583 114.433 37.3964 114.662 37.4725C114.852 37.5487 115.043 37.6248 115.233 37.7391C115.385 37.8533 115.538 38.0057 115.69 38.158C115.804 38.3103 115.918 38.4626 115.995 38.653C115.995 38.6911 115.995 38.7292 115.995 38.7673C115.956 38.8054 115.956 38.8054 115.918 38.8054H115.652C115.614 38.8054 115.614 38.8054 115.576 38.7673C115.576 38.7673 115.538 38.7292 115.538 38.6911C115.461 38.5388 115.385 38.4245 115.271 38.3103C115.157 38.1961 115.081 38.1199 114.928 38.0437C114.814 37.9676 114.662 37.8914 114.509 37.8533C114.357 37.8152 114.205 37.7772 114.014 37.7772C113.786 37.7772 113.557 37.8152 113.329 37.9295C113.138 38.0057 112.948 38.158 112.796 38.3103C112.643 38.4626 112.529 38.653 112.453 38.8815C112.377 39.11 112.339 39.3385 112.339 39.6051C112.339 39.8716 112.377 40.1382 112.453 40.3667C112.529 40.5952 112.643 40.8236 112.796 40.976C112.948 41.1664 113.138 41.2806 113.329 41.3949C113.519 41.5091 113.748 41.5472 113.976 41.5472C114.167 41.5472 114.319 41.5091 114.509 41.471C114.662 41.3949 114.814 41.3187 114.928 41.2425C115.043 41.1283 115.157 41.014 115.271 40.8617C115.385 40.7094 115.461 40.5571 115.538 40.4047C115.538 40.3667 115.576 40.3667 115.576 40.3286C115.576 40.3286 115.614 40.2905 115.652 40.2905H115.956C115.995 40.2905 115.995 40.2905 116.033 40.2905L116.071 40.3286V40.3667C116.033 40.4809 116.033 40.4809 116.033 40.519Z" fill="#008AAA"/>
<path d="M118.051 41.8518L118.089 37.4725C118.089 37.4344 118.089 37.4344 118.127 37.3964C118.165 37.3583 118.165 37.3583 118.203 37.3583H118.431C118.469 37.3583 118.469 37.3583 118.508 37.3964C118.508 37.3964 118.546 37.4344 118.546 37.4725L118.584 41.8518C118.584 41.8899 118.584 41.8899 118.546 41.928C118.508 41.9661 118.508 41.9661 118.469 41.9661H118.165C118.127 41.9661 118.127 41.9661 118.089 41.928C118.051 41.928 118.051 41.8899 118.051 41.8518Z" fill="#008AAA"/>
<path d="M124.562 41.8518C124.562 41.8899 124.562 41.928 124.562 41.928C124.524 41.9661 124.524 41.9661 124.486 41.9661H124.143C124.105 41.9661 124.067 41.928 124.029 41.8899L123.572 40.6332C123.534 40.5951 123.534 40.5571 123.458 40.5571H121.706C121.668 40.5571 121.63 40.5951 121.592 40.6332L121.097 41.8899C121.097 41.928 121.059 41.9661 121.021 41.9661H120.678C120.64 41.9661 120.602 41.9661 120.602 41.928C120.602 41.8899 120.602 41.8518 120.602 41.8137L122.354 37.4344C122.354 37.4344 122.354 37.3964 122.392 37.3964H122.43H122.696C122.734 37.3964 122.772 37.4344 122.772 37.4725L124.562 41.8518ZM123.306 39.9859L122.658 38.1961C122.658 38.158 122.62 38.158 122.62 38.158H122.582H122.544L122.506 38.1961L121.859 39.9859C121.859 40.0239 121.859 40.062 121.859 40.062C121.859 40.1001 121.897 40.1001 121.935 40.1001H123.268C123.306 40.1001 123.344 40.1001 123.344 40.062C123.306 40.0239 123.306 39.9859 123.306 39.9859Z" fill="#008AAA"/>
<path d="M131.379 37.3964C131.57 37.3964 131.722 37.4344 131.912 37.5106C132.065 37.5868 132.217 37.6629 132.331 37.7772C132.445 37.8914 132.56 38.0437 132.636 38.1961C132.712 38.3484 132.75 38.5388 132.75 38.7292C132.75 38.9196 132.712 39.0719 132.636 39.2242C132.56 39.3766 132.483 39.5289 132.369 39.6431C132.255 39.7574 132.103 39.8716 131.95 39.9478C131.798 40.0239 131.608 40.062 131.417 40.062H130.008C129.97 40.062 129.97 40.062 129.932 40.1001C129.932 40.1001 129.894 40.1382 129.894 40.1763V41.928C129.894 41.966 129.894 41.966 129.856 42.0041C129.818 42.0422 129.818 42.0422 129.78 42.0422H129.475C129.437 42.0422 129.437 42.0422 129.399 42.0041C129.361 41.966 129.361 41.966 129.361 41.928L129.399 37.5487C129.399 37.5106 129.399 37.5106 129.437 37.4725C129.475 37.4344 129.475 37.4344 129.513 37.4344H131.379V37.3964ZM131.341 39.605C131.493 39.605 131.608 39.567 131.722 39.5289C131.836 39.4908 131.912 39.4146 131.988 39.3385C132.065 39.2623 132.103 39.1862 132.179 39.0719C132.217 38.9577 132.255 38.8434 132.255 38.7292C132.255 38.6149 132.217 38.5007 132.179 38.3865C132.141 38.2722 132.065 38.1961 131.988 38.1199C131.912 38.0437 131.836 37.9676 131.722 37.9295C131.608 37.8914 131.493 37.8533 131.379 37.8533H129.97C129.932 37.8533 129.932 37.8533 129.894 37.8914C129.894 37.8914 129.856 37.9295 129.856 37.9676V39.5289C129.856 39.567 129.856 39.567 129.894 39.605C129.894 39.605 129.932 39.6431 129.97 39.6431H131.341V39.605Z" fill="#008AAA"/>
<path d="M137.777 41.8518C137.777 41.8899 137.777 41.928 137.777 41.928C137.739 41.9661 137.739 41.9661 137.701 41.9661H137.358C137.32 41.9661 137.282 41.928 137.244 41.8899L136.787 40.6332C136.787 40.5951 136.749 40.5571 136.672 40.5571H134.921C134.883 40.5571 134.845 40.5951 134.806 40.6332L134.349 41.8899C134.349 41.928 134.311 41.9661 134.273 41.9661H133.931C133.893 41.9661 133.854 41.9661 133.854 41.928C133.854 41.8899 133.854 41.8518 133.854 41.8137L135.606 37.4344C135.606 37.4344 135.606 37.3964 135.644 37.3964H135.682H135.949C135.987 37.3964 136.025 37.4344 136.025 37.4725L137.777 41.8518ZM136.52 39.9859L135.873 38.1961C135.873 38.158 135.835 38.158 135.835 38.158H135.797H135.758L135.72 38.1961L135.073 39.9859C135.073 40.0239 135.073 40.062 135.073 40.062C135.073 40.1001 135.111 40.1001 135.149 40.1001H136.482C136.52 40.1001 136.558 40.1001 136.558 40.062C136.52 40.0239 136.52 39.9859 136.52 39.9859Z" fill="#008AAA"/>
<path d="M143.184 41.8137L143.222 41.8518C143.222 41.8899 143.222 41.8899 143.222 41.8899L143.184 41.928H143.146H142.765C142.727 41.928 142.689 41.928 142.651 41.8899L141.242 40.062C141.204 40.0239 141.204 40.0239 141.166 40.0239H140.214C140.176 40.0239 140.176 40.0239 140.138 40.062C140.138 40.062 140.1 40.1001 140.1 40.1382V41.8518C140.1 41.8899 140.1 41.8899 140.062 41.928C140.024 41.9661 140.024 41.9661 139.985 41.9661H139.681C139.643 41.9661 139.605 41.9661 139.605 41.928C139.567 41.8899 139.567 41.8899 139.567 41.8518L139.605 37.4725C139.605 37.4344 139.605 37.4344 139.643 37.3964C139.681 37.3583 139.681 37.3583 139.719 37.3583H141.509C141.699 37.3583 141.851 37.3964 142.042 37.4725C142.194 37.5487 142.346 37.6248 142.499 37.7391C142.613 37.8533 142.727 38.0056 142.803 38.158C142.88 38.3103 142.918 38.5007 142.918 38.6911C142.918 38.8434 142.88 38.9958 142.842 39.1481C142.803 39.3004 142.727 39.4146 142.613 39.5289C142.537 39.6431 142.423 39.7193 142.27 39.7955C142.156 39.8716 142.004 39.9097 141.889 39.9478C141.851 39.9478 141.851 39.9859 141.851 39.9859C141.851 40.0239 141.851 40.0239 141.851 40.0239L143.184 41.8137ZM141.547 39.605C141.661 39.605 141.775 39.567 141.889 39.5289C142.004 39.4908 142.08 39.4146 142.156 39.3385C142.232 39.2623 142.308 39.1862 142.346 39.0719C142.385 38.9577 142.423 38.8434 142.423 38.7292C142.423 38.6149 142.385 38.5007 142.346 38.3865C142.308 38.2722 142.232 38.1961 142.156 38.1199C142.08 38.0437 141.966 37.9676 141.889 37.9295C141.775 37.8914 141.661 37.8533 141.547 37.8533H140.138C140.1 37.8533 140.1 37.8533 140.062 37.8914C140.062 37.8914 140.024 37.9295 140.024 37.9676V39.5289C140.024 39.567 140.024 39.567 140.062 39.605C140.062 39.605 140.1 39.6431 140.138 39.6431H141.547V39.605Z" fill="#008AAA"/>
<path d="M148.858 41.8518C148.858 41.8899 148.858 41.928 148.858 41.928C148.82 41.9661 148.82 41.9661 148.782 41.9661H148.439C148.401 41.9661 148.363 41.928 148.325 41.8899L147.868 40.6332C147.868 40.5951 147.83 40.5571 147.754 40.5571H146.002C145.964 40.5571 145.926 40.5951 145.888 40.6332L145.431 41.8899C145.431 41.928 145.393 41.9661 145.354 41.9661H145.012C144.974 41.9661 144.936 41.9661 144.936 41.928C144.936 41.8899 144.936 41.8518 144.936 41.8137L146.687 37.4344C146.687 37.4344 146.687 37.3964 146.725 37.3964H146.763H147.03C147.068 37.3964 147.106 37.4344 147.106 37.4725L148.858 41.8518ZM147.601 39.9859L146.954 38.1961C146.954 38.158 146.916 38.158 146.916 38.158H146.878H146.84L146.801 38.1961L146.154 39.9859C146.154 40.0239 146.154 40.062 146.154 40.062C146.154 40.1001 146.192 40.1001 146.23 40.1001H147.563C147.601 40.1001 147.639 40.1001 147.639 40.062C147.639 40.0239 147.639 39.9859 147.601 39.9859Z" fill="#008AAA"/>
<path d="M155.865 37.3192C156.169 37.3192 156.474 37.3954 156.741 37.5096C157.007 37.6239 157.236 37.7762 157.426 38.0047C157.617 38.1951 157.769 38.4616 157.883 38.7282C157.997 38.9948 158.035 39.2994 158.035 39.6421C158.035 39.8706 157.997 40.0991 157.959 40.2895C157.921 40.4799 157.845 40.6703 157.769 40.8607C157.693 41.0511 157.578 41.2035 157.426 41.3558C157.312 41.5081 157.16 41.6224 157.007 41.7366C156.855 41.8508 156.665 41.927 156.474 41.9651C156.284 42.0032 156.055 42.0412 155.865 42.0412C155.522 42.0412 155.256 41.9651 154.989 41.8508C154.722 41.7366 154.494 41.5462 154.304 41.3558C154.113 41.1273 153.961 40.8988 153.847 40.5942C153.732 40.2895 153.694 39.9849 153.694 39.6421C153.694 39.2994 153.732 38.9948 153.847 38.7282C153.961 38.4616 154.113 38.1951 154.304 38.0047C154.494 37.8143 154.722 37.6239 154.989 37.5096C155.256 37.3954 155.56 37.3192 155.865 37.3192ZM155.865 41.5462C156.131 41.5462 156.36 41.5081 156.55 41.3939C156.741 41.2796 156.931 41.1654 157.083 40.975C157.236 40.7846 157.35 40.5942 157.426 40.3657C157.502 40.1372 157.54 39.8706 157.54 39.6421C157.54 39.3756 157.502 39.1471 157.426 38.9186C157.35 38.6901 157.236 38.4997 157.083 38.3474C156.931 38.1951 156.741 38.0428 156.55 37.9666C156.36 37.8523 156.131 37.8143 155.865 37.8143C155.636 37.8143 155.408 37.8523 155.179 37.9666C154.951 38.0808 154.799 38.1951 154.646 38.3474C154.494 38.4997 154.38 38.6901 154.304 38.9186C154.227 39.1471 154.189 39.3756 154.189 39.6421C154.189 39.9087 154.227 40.1372 154.304 40.3657C154.38 40.5942 154.494 40.7846 154.646 40.975C154.799 41.1654 154.989 41.2796 155.179 41.3939C155.37 41.5081 155.598 41.5462 155.865 41.5462Z" fill="#008AAA"/>
<path d="M166.413 40.6713C166.413 40.9379 166.375 41.1283 166.261 41.3187C166.185 41.5091 166.032 41.6233 165.88 41.7376C165.728 41.8518 165.537 41.928 165.347 41.9661C165.157 42.0041 164.928 42.0422 164.7 42.0422C164.585 42.0422 164.471 42.0422 164.319 42.0041C164.204 41.9661 164.052 41.9661 163.938 41.8899C163.824 41.8518 163.671 41.7757 163.557 41.6995C163.443 41.6233 163.329 41.5472 163.252 41.4329C163.138 41.3187 163.062 41.2044 163.024 41.0902C162.948 40.976 162.91 40.8236 162.872 40.6332C162.872 40.5952 162.872 40.5571 162.91 40.5571C162.91 40.519 162.948 40.519 162.986 40.519H163.291C163.329 40.519 163.329 40.519 163.367 40.5571C163.405 40.5571 163.405 40.5952 163.405 40.6332C163.443 40.7856 163.481 40.8998 163.595 41.014C163.671 41.1283 163.786 41.2425 163.9 41.3187C164.014 41.3949 164.166 41.471 164.281 41.5091C164.433 41.5472 164.585 41.5853 164.738 41.5853C164.89 41.5853 165.042 41.5853 165.195 41.5472C165.347 41.5091 165.461 41.471 165.575 41.3949C165.69 41.3187 165.766 41.2425 165.842 41.1283C165.918 41.014 165.956 40.8998 165.956 40.7475C165.956 40.5952 165.918 40.4809 165.842 40.3667C165.766 40.2524 165.69 40.1763 165.575 40.1382C165.461 40.062 165.309 40.0239 165.157 39.9859C165.004 39.9478 164.852 39.9097 164.7 39.8716C164.509 39.8335 164.319 39.7574 164.128 39.7193C163.938 39.6431 163.786 39.567 163.633 39.4908C163.481 39.3766 163.367 39.2623 163.291 39.11C163.214 38.9577 163.176 38.8054 163.176 38.5769C163.176 38.3865 163.214 38.1961 163.291 38.0437C163.367 37.8914 163.481 37.7772 163.633 37.6629C163.786 37.5487 163.938 37.4725 164.09 37.4344C164.281 37.3964 164.471 37.3583 164.661 37.3583C164.852 37.3583 165.042 37.3964 165.233 37.4344C165.423 37.4725 165.575 37.5487 165.728 37.6629C165.88 37.7391 166.032 37.8914 166.109 38.0437C166.223 38.1961 166.299 38.3865 166.337 38.5769C166.337 38.6149 166.337 38.653 166.299 38.653C166.261 38.6911 166.261 38.6911 166.223 38.6911H165.956C165.918 38.6911 165.918 38.6911 165.88 38.653C165.88 38.653 165.842 38.6149 165.842 38.5769C165.804 38.4626 165.728 38.3484 165.652 38.2341C165.575 38.158 165.461 38.0818 165.347 38.0057C165.233 37.9676 165.118 37.8914 165.004 37.8914C164.89 37.8533 164.776 37.8533 164.661 37.8533C164.547 37.8533 164.433 37.8533 164.319 37.8914C164.204 37.9295 164.09 37.9676 163.976 38.0057C163.862 38.0437 163.786 38.1199 163.709 38.2341C163.633 38.3103 163.595 38.4245 163.595 38.5769C163.595 38.6911 163.633 38.7673 163.671 38.8434C163.709 38.9196 163.786 38.9958 163.862 39.0719C163.938 39.1481 164.014 39.1862 164.09 39.2242C164.166 39.2623 164.281 39.3004 164.357 39.3385C164.471 39.3766 164.547 39.4146 164.661 39.4146C164.738 39.4527 164.852 39.4527 164.928 39.4527C165.118 39.4908 165.309 39.5289 165.499 39.6051C165.69 39.6812 165.842 39.7574 165.994 39.8335C166.147 39.9097 166.261 40.062 166.337 40.1763C166.375 40.2905 166.413 40.4428 166.413 40.6713Z" fill="#008AAA"/>
<path d="M171.325 41.8518C171.325 41.8899 171.325 41.928 171.287 41.928C171.249 41.9661 171.249 41.9661 171.211 41.9661H168.393C168.355 41.9661 168.317 41.9661 168.317 41.928C168.279 41.8899 168.279 41.8899 168.279 41.8518L168.317 37.4725C168.317 37.4344 168.317 37.4344 168.355 37.3964C168.355 37.3583 168.393 37.3583 168.431 37.3583H171.173C171.211 37.3583 171.211 37.3583 171.249 37.3964C171.249 37.3964 171.287 37.4344 171.287 37.4725V37.7391C171.287 37.7772 171.287 37.7772 171.249 37.8152C171.249 37.8533 171.211 37.8533 171.173 37.8533H168.888C168.85 37.8533 168.85 37.8533 168.812 37.8914C168.812 37.8914 168.774 37.9295 168.774 37.9676V39.2242C168.774 39.2623 168.774 39.2623 168.812 39.3004C168.812 39.3004 168.85 39.3385 168.888 39.3385H170.983C171.021 39.3385 171.021 39.3385 171.059 39.3766C171.059 39.3766 171.097 39.4146 171.097 39.4527V39.7193C171.097 39.7574 171.097 39.7574 171.059 39.7955C171.059 39.7955 171.021 39.8335 170.983 39.8335H168.888C168.85 39.8335 168.85 39.8335 168.812 39.8716C168.812 39.8716 168.774 39.9097 168.774 39.9478V41.471C168.774 41.5091 168.774 41.5091 168.812 41.5472C168.812 41.5472 168.85 41.5852 168.888 41.5852H171.211C171.249 41.5852 171.287 41.5853 171.287 41.6233C171.325 41.6233 171.325 41.6614 171.325 41.6995V41.8518Z" fill="#008AAA"/>
<path d="M176.505 37.7391C176.505 37.7772 176.505 37.7772 176.505 37.8152C176.505 37.8533 176.467 37.8533 176.429 37.8533H175.096C175.058 37.8533 175.058 37.8533 175.02 37.8914C175.02 37.8914 174.982 37.9295 174.982 37.9676L175.02 41.8899C175.02 41.928 175.02 41.928 174.982 41.966C174.944 42.0041 174.944 42.0041 174.905 42.0041H174.601C174.563 42.0041 174.563 42.0041 174.525 41.966C174.487 41.928 174.487 41.928 174.487 41.8899L174.525 37.9676C174.525 37.9295 174.525 37.9295 174.487 37.8914C174.487 37.8914 174.449 37.8533 174.41 37.8533H173.116C173.078 37.8533 173.078 37.8533 173.04 37.8152C173.04 37.8152 173.001 37.7772 173.001 37.7391V37.4725C173.001 37.4344 173.001 37.4344 173.04 37.3964C173.04 37.3964 173.078 37.3583 173.116 37.3583H176.353C176.391 37.3583 176.391 37.3583 176.429 37.3964C176.429 37.3964 176.467 37.4344 176.467 37.4725L176.505 37.7391Z" fill="#008AAA"/>
<path d="M180.503 37.3192C180.808 37.3192 181.112 37.3954 181.379 37.5096C181.646 37.6239 181.874 37.7762 182.064 38.0047C182.255 38.1951 182.407 38.4616 182.521 38.7282C182.636 38.9948 182.674 39.2994 182.674 39.6421C182.674 39.8706 182.636 40.0991 182.598 40.2895C182.559 40.4799 182.483 40.6703 182.407 40.8607C182.331 41.0511 182.217 41.2035 182.064 41.3558C181.95 41.5081 181.798 41.6224 181.607 41.7366C181.455 41.8508 181.265 41.927 181.074 41.9651C180.884 42.0032 180.656 42.0412 180.465 42.0412C180.122 42.0412 179.856 41.9651 179.589 41.8508C179.323 41.7366 179.094 41.5462 178.904 41.3558C178.714 41.1273 178.561 40.8988 178.447 40.5942C178.333 40.2895 178.295 39.9849 178.295 39.6421C178.295 39.2994 178.333 38.9948 178.447 38.7282C178.561 38.4616 178.714 38.1951 178.904 38.0047C179.094 37.8143 179.323 37.6239 179.589 37.5096C179.894 37.3954 180.161 37.3192 180.503 37.3192ZM180.503 41.5462C180.77 41.5462 180.998 41.5081 181.189 41.3939C181.379 41.2796 181.569 41.1654 181.722 40.975C181.874 40.7846 181.988 40.5942 182.064 40.3657C182.141 40.1372 182.179 39.8706 182.179 39.6421C182.179 39.3756 182.141 39.1471 182.064 38.9186C181.988 38.6901 181.874 38.4997 181.722 38.3474C181.569 38.1951 181.379 38.0428 181.189 37.9666C180.998 37.8523 180.77 37.8143 180.503 37.8143C180.275 37.8143 180.046 37.8523 179.818 37.9666C179.627 38.0808 179.437 38.1951 179.285 38.3474C179.132 38.4997 179.018 38.6901 178.942 38.9186C178.866 39.1471 178.828 39.3756 178.828 39.6421C178.828 39.9087 178.866 40.1372 178.942 40.3657C179.018 40.5942 179.132 40.7846 179.285 40.975C179.437 41.1654 179.627 41.2796 179.818 41.3939C180.008 41.5081 180.237 41.5462 180.503 41.5462Z" fill="#008AAA"/>
<path d="M188.043 41.8137L188.081 41.8518C188.081 41.8899 188.081 41.8899 188.081 41.8899L188.043 41.928H188.005H187.624C187.586 41.928 187.548 41.928 187.51 41.8899L186.101 40.062C186.063 40.0239 186.063 40.0239 186.025 40.0239H185.073C185.035 40.0239 185.035 40.0239 184.997 40.062C184.997 40.062 184.958 40.1001 184.958 40.1382V41.8518C184.958 41.8899 184.958 41.8899 184.92 41.928C184.92 41.9661 184.882 41.9661 184.844 41.9661H184.54C184.502 41.9661 184.463 41.9661 184.463 41.928C184.425 41.8899 184.425 41.8899 184.425 41.8518L184.463 37.4725C184.463 37.4344 184.463 37.4344 184.502 37.3964C184.54 37.3583 184.54 37.3583 184.578 37.3583H186.367C186.558 37.3583 186.71 37.3964 186.901 37.4725C187.053 37.5487 187.205 37.6248 187.358 37.7391C187.472 37.8533 187.586 38.0056 187.662 38.158C187.738 38.3103 187.776 38.5007 187.776 38.6911C187.776 38.8434 187.738 38.9958 187.7 39.1481C187.662 39.3004 187.586 39.4146 187.472 39.5289C187.396 39.6431 187.281 39.7193 187.129 39.7955C187.015 39.8716 186.863 39.9097 186.748 39.9478C186.71 39.9478 186.71 39.9859 186.71 39.9859C186.71 40.0239 186.71 40.0239 186.71 40.0239L188.043 41.8137ZM186.406 39.605C186.52 39.605 186.634 39.567 186.748 39.5289C186.863 39.4908 186.939 39.4146 187.015 39.3385C187.091 39.2623 187.167 39.1862 187.205 39.0719C187.243 38.9577 187.281 38.8434 187.281 38.7292C187.281 38.6149 187.243 38.5007 187.205 38.3865C187.167 38.2722 187.091 38.1961 187.015 38.1199C186.939 38.0437 186.824 37.9676 186.748 37.9295C186.634 37.8914 186.52 37.8533 186.406 37.8533H185.035C184.997 37.8533 184.997 37.8533 184.958 37.8914C184.958 37.8914 184.92 37.9295 184.92 37.9676V39.5289C184.92 39.567 184.92 39.567 184.958 39.605C184.958 39.605 184.997 39.6431 185.035 39.6431H186.406V39.605Z" fill="#008AAA"/>
<path d="M197.563 41.8508C197.563 41.8889 197.563 41.8889 197.525 41.927C197.487 41.9651 197.487 41.9651 197.449 41.9651H197.144C197.106 41.9651 197.106 41.9651 197.068 41.927C197.03 41.8889 197.03 41.8889 197.03 41.8508L197.068 38.2332V38.1951C197.068 38.1951 197.03 38.1951 197.03 38.157H196.992C196.992 38.157 196.954 38.157 196.954 38.1951L195.545 41.8508C195.545 41.8889 195.507 41.8889 195.507 41.8889C195.507 41.8889 195.469 41.927 195.431 41.927H195.126C195.088 41.927 195.05 41.8889 195.012 41.8508L193.603 38.157C193.603 38.157 193.603 38.1189 193.565 38.1189H193.527C193.527 38.1189 193.489 38.1189 193.489 38.157V38.1951L193.527 41.8128C193.527 41.8508 193.527 41.8508 193.489 41.8889C193.451 41.927 193.451 41.927 193.412 41.927H193.108C193.07 41.927 193.032 41.927 193.032 41.8889C193.032 41.8508 192.994 41.8508 192.994 41.8128L193.032 37.4335C193.032 37.3954 193.032 37.3954 193.07 37.3573C193.108 37.3192 193.108 37.3192 193.146 37.3192H193.641C193.679 37.3192 193.679 37.3192 193.717 37.3573L193.755 37.3954L195.202 40.975C195.202 41.0131 195.24 41.0511 195.278 41.0511C195.316 41.0511 195.355 41.0511 195.355 41.0131L196.84 37.4335C196.84 37.3954 196.878 37.3954 196.878 37.3954C196.878 37.3954 196.916 37.3954 196.954 37.3954H197.449C197.487 37.3954 197.487 37.3954 197.525 37.4335C197.525 37.4335 197.563 37.4715 197.563 37.5096V41.8508Z" fill="#008AAA"/>
<path d="M201.6 37.3192C201.904 37.3192 202.209 37.3954 202.476 37.5096C202.742 37.6239 202.971 37.7762 203.161 38.0047C203.351 38.1951 203.504 38.4616 203.618 38.7282C203.732 38.9948 203.77 39.2994 203.77 39.6421C203.77 39.8706 203.732 40.0991 203.694 40.2895C203.656 40.4799 203.58 40.6703 203.504 40.8607C203.428 41.0511 203.313 41.2035 203.161 41.3558C203.047 41.5081 202.894 41.6224 202.742 41.7366C202.59 41.8508 202.399 41.927 202.209 41.9651C202.019 42.0032 201.79 42.0412 201.6 42.0412C201.257 42.0412 200.991 41.9651 200.724 41.8508C200.457 41.7366 200.229 41.5462 200.039 41.3558C199.848 41.1273 199.696 40.8988 199.582 40.5942C199.467 40.2895 199.429 39.9849 199.429 39.6421C199.429 39.2994 199.467 38.9948 199.582 38.7282C199.696 38.4616 199.848 38.1951 200.039 38.0047C200.229 37.8143 200.457 37.6239 200.724 37.5096C200.991 37.3954 201.295 37.3192 201.6 37.3192ZM201.6 41.5462C201.866 41.5462 202.095 41.5081 202.285 41.3939C202.476 41.2796 202.666 41.1654 202.818 40.975C202.971 40.7846 203.085 40.5942 203.161 40.3657C203.237 40.1372 203.275 39.8706 203.275 39.6421C203.275 39.3756 203.237 39.1471 203.161 38.9186C203.085 38.6901 202.971 38.4997 202.818 38.3474C202.666 38.1951 202.476 38.0428 202.285 37.9666C202.095 37.8523 201.866 37.8143 201.6 37.8143C201.371 37.8143 201.143 37.8523 200.914 37.9666C200.724 38.0808 200.534 38.1951 200.381 38.3474C200.229 38.4997 200.115 38.6901 200.039 38.9186C199.962 39.1471 199.924 39.3756 199.924 39.6421C199.924 39.9087 199.962 40.1372 200.039 40.3657C200.115 40.5942 200.229 40.7846 200.381 40.975C200.534 41.1654 200.724 41.2796 200.914 41.3939C201.105 41.5081 201.333 41.5462 201.6 41.5462Z" fill="#008AAA"/>
<path d="M207.541 41.8899C207.541 41.928 207.502 41.9661 207.426 41.9661H207.007C206.931 41.9661 206.931 41.928 206.893 41.8899L205.256 37.5106C205.256 37.4725 205.256 37.4344 205.256 37.4344C205.294 37.3964 205.294 37.3964 205.332 37.3964H205.598C205.636 37.3964 205.675 37.4344 205.713 37.4725L207.16 41.2044C207.16 41.2425 207.198 41.2425 207.236 41.2425C207.274 41.2425 207.274 41.2425 207.312 41.2044L208.721 37.4725C208.721 37.4344 208.759 37.3964 208.835 37.3964H209.102C209.14 37.3964 209.14 37.3964 209.178 37.4344C209.216 37.4725 209.216 37.4725 209.178 37.5106L207.541 41.8899Z" fill="#008AAA"/>
<path d="M214.014 41.8518C214.014 41.8899 214.014 41.928 213.976 41.928C213.938 41.9661 213.938 41.9661 213.9 41.9661H211.082C211.044 41.9661 211.044 41.9661 211.006 41.928C210.968 41.8899 210.968 41.8899 210.968 41.8518L211.006 37.4725C211.006 37.4344 211.006 37.4344 211.044 37.3964C211.044 37.3583 211.082 37.3583 211.12 37.3583H213.862C213.9 37.3583 213.9 37.3583 213.938 37.3964C213.938 37.3964 213.976 37.4344 213.976 37.4725V37.7391C213.976 37.7772 213.976 37.7772 213.938 37.8152C213.938 37.8533 213.9 37.8533 213.862 37.8533H211.577C211.539 37.8533 211.539 37.8533 211.501 37.8914C211.501 37.8914 211.463 37.9295 211.463 37.9676V39.2242C211.463 39.2623 211.463 39.2623 211.501 39.3004C211.501 39.3004 211.539 39.3385 211.577 39.3385H213.672C213.71 39.3385 213.71 39.3385 213.748 39.3766C213.748 39.3766 213.786 39.4146 213.786 39.4527V39.7193C213.786 39.7574 213.786 39.7574 213.748 39.7955C213.748 39.7955 213.71 39.8335 213.672 39.8335H211.577C211.539 39.8335 211.539 39.8335 211.501 39.8716C211.501 39.8716 211.463 39.9097 211.463 39.9478V41.471C211.463 41.5091 211.463 41.5091 211.501 41.5472C211.501 41.5472 211.539 41.5852 211.577 41.5852H213.9C213.938 41.5852 213.976 41.5853 213.976 41.6233C214.014 41.6233 214.014 41.6614 214.014 41.6995V41.8518Z" fill="#008AAA"/>
<path d="M218.889 41.8518C218.889 41.8899 218.889 41.8899 218.851 41.928C218.813 41.9661 218.813 41.9661 218.775 41.9661H215.957C215.919 41.9661 215.919 41.9661 215.881 41.928C215.843 41.8899 215.843 41.8899 215.843 41.8518L215.881 37.4725C215.881 37.4344 215.881 37.4344 215.919 37.3964C215.957 37.3583 215.957 37.3583 215.995 37.3583H216.223C216.261 37.3583 216.261 37.3583 216.3 37.3964C216.3 37.3964 216.338 37.4344 216.338 37.4725L216.376 41.3568C216.376 41.3948 216.376 41.3948 216.414 41.4329C216.414 41.4329 216.452 41.471 216.49 41.471H218.813C218.851 41.471 218.851 41.471 218.889 41.5091C218.889 41.5091 218.927 41.5472 218.927 41.5852L218.889 41.8518Z" fill="#008AAA"/>
<path d="M223.725 41.8518C223.725 41.8899 223.725 41.928 223.687 41.928C223.649 41.9661 223.649 41.9661 223.611 41.9661H220.793C220.755 41.9661 220.754 41.9661 220.716 41.928C220.678 41.8899 220.678 41.8899 220.678 41.8518L220.716 37.4725C220.716 37.4344 220.716 37.4344 220.755 37.3964C220.755 37.3583 220.793 37.3583 220.831 37.3583H223.573C223.611 37.3583 223.611 37.3583 223.649 37.3964C223.649 37.3964 223.687 37.4344 223.687 37.4725V37.7391C223.687 37.7772 223.687 37.7772 223.649 37.8152C223.649 37.8533 223.611 37.8533 223.573 37.8533H221.288C221.25 37.8533 221.25 37.8533 221.211 37.8914C221.211 37.8914 221.173 37.9295 221.173 37.9676V39.2242C221.173 39.2623 221.173 39.2623 221.211 39.3004C221.211 39.3004 221.25 39.3385 221.288 39.3385H223.382C223.42 39.3385 223.42 39.3385 223.458 39.3766C223.458 39.3766 223.496 39.4146 223.496 39.4527V39.7193C223.496 39.7574 223.496 39.7574 223.458 39.7955C223.458 39.7955 223.42 39.8335 223.382 39.8335H221.25C221.211 39.8335 221.211 39.8335 221.173 39.8716C221.173 39.8716 221.135 39.9097 221.135 39.9478V41.471C221.135 41.5091 221.135 41.5091 221.173 41.5472C221.173 41.5472 221.211 41.5852 221.25 41.5852H223.573C223.611 41.5852 223.649 41.5853 223.649 41.6233C223.687 41.6233 223.687 41.6614 223.687 41.6995L223.725 41.8518Z" fill="#008AAA"/>
<path d="M225.666 41.8518L225.704 37.4725C225.704 37.4344 225.704 37.4344 225.742 37.3964C225.78 37.3583 225.78 37.3583 225.819 37.3583H226.047C226.085 37.3583 226.085 37.3583 226.123 37.3964C226.123 37.3964 226.161 37.4344 226.161 37.4725L226.199 41.8518C226.199 41.8899 226.199 41.8899 226.161 41.928C226.123 41.9661 226.123 41.9661 226.085 41.9661H225.78C225.742 41.9661 225.742 41.9661 225.704 41.928C225.704 41.928 225.666 41.8899 225.666 41.8518Z" fill="#008AAA"/>
<path d="M231.836 41.8137L231.875 41.8518C231.875 41.8899 231.875 41.8899 231.875 41.8899L231.836 41.928H231.798H231.418C231.38 41.928 231.341 41.928 231.303 41.8899L229.894 40.062C229.856 40.0239 229.856 40.0239 229.818 40.0239H228.866C228.828 40.0239 228.828 40.0239 228.79 40.062C228.79 40.062 228.752 40.1001 228.752 40.1382V41.8518C228.752 41.8899 228.752 41.8899 228.714 41.928C228.714 41.9661 228.676 41.9661 228.638 41.9661H228.333C228.295 41.9661 228.257 41.9661 228.257 41.928C228.219 41.8899 228.219 41.8899 228.219 41.8518L228.257 37.4725C228.257 37.4344 228.257 37.4344 228.295 37.3964C228.333 37.3583 228.333 37.3583 228.371 37.3583H230.161C230.351 37.3583 230.504 37.3964 230.694 37.4725C230.846 37.5487 230.999 37.6248 231.151 37.7391C231.265 37.8533 231.379 38.0056 231.456 38.158C231.532 38.3103 231.57 38.5007 231.57 38.6911C231.57 38.8434 231.532 38.9958 231.494 39.1481C231.456 39.3004 231.379 39.4146 231.265 39.5289C231.189 39.6431 231.075 39.7193 230.923 39.7955C230.808 39.8716 230.656 39.9097 230.542 39.9478C230.504 39.9478 230.504 39.9859 230.504 39.9859C230.504 40.0239 230.504 40.0239 230.504 40.0239L231.836 41.8137ZM230.199 39.605C230.313 39.605 230.428 39.567 230.542 39.5289C230.656 39.4908 230.732 39.4146 230.808 39.3385C230.884 39.2623 230.961 39.1862 230.999 39.0719C231.037 38.9577 231.075 38.8434 231.075 38.7292C231.075 38.6149 231.037 38.5007 230.999 38.3865C230.961 38.2722 230.884 38.1961 230.808 38.1199C230.732 38.0437 230.618 37.9676 230.542 37.9295C230.428 37.8914 230.313 37.8533 230.199 37.8533H228.828C228.79 37.8533 228.79 37.8533 228.752 37.8914C228.752 37.8914 228.714 37.9295 228.714 37.9676V39.5289C228.714 39.567 228.714 39.567 228.752 39.605C228.752 39.605 228.79 39.6431 228.828 39.6431H230.199V39.605Z" fill="#008AAA"/>
<path d="M235.606 37.3192C235.911 37.3192 236.215 37.3954 236.482 37.5096C236.748 37.6239 236.977 37.7762 237.167 38.0047C237.358 38.1951 237.51 38.4616 237.624 38.7282C237.738 38.9948 237.776 39.2994 237.776 39.6421C237.776 39.8706 237.738 40.0991 237.7 40.2895C237.662 40.4799 237.586 40.6703 237.51 40.8607C237.434 41.0511 237.32 41.2035 237.167 41.3558C237.053 41.5081 236.901 41.6224 236.71 41.7366C236.558 41.8508 236.368 41.927 236.177 41.9651C235.987 42.0032 235.758 42.0412 235.568 42.0412C235.225 42.0412 234.959 41.9651 234.692 41.8508C234.425 41.7366 234.197 41.5462 234.006 41.3558C233.816 41.1273 233.664 40.8988 233.55 40.5942C233.435 40.2895 233.397 39.9849 233.397 39.6421C233.397 39.2994 233.435 38.9948 233.55 38.7282C233.664 38.4616 233.816 38.1951 234.006 38.0047C234.197 37.8143 234.425 37.6239 234.692 37.5096C234.997 37.3954 235.263 37.3192 235.606 37.3192ZM235.606 41.5462C235.872 41.5462 236.101 41.5081 236.291 41.3939C236.482 41.2796 236.672 41.1654 236.824 40.975C236.977 40.7846 237.091 40.5942 237.167 40.3657C237.243 40.1372 237.281 39.8706 237.281 39.6421C237.281 39.3756 237.243 39.1471 237.167 38.9186C237.091 38.6901 236.977 38.4997 236.824 38.3474C236.672 38.1951 236.482 38.0428 236.291 37.9666C236.101 37.8523 235.872 37.8143 235.606 37.8143C235.377 37.8143 235.149 37.8523 234.92 37.9666C234.692 38.0808 234.54 38.1951 234.387 38.3474C234.235 38.4997 234.121 38.6901 234.045 38.9186C233.968 39.1471 233.93 39.3756 233.93 39.6421C233.93 39.9087 233.968 40.1372 234.045 40.3657C234.121 40.5942 234.235 40.7846 234.387 40.975C234.54 41.1654 234.73 41.2796 234.92 41.3939C235.111 41.5081 235.339 41.5462 235.606 41.5462Z" fill="#008AAA"/>
<path d="M30.4645 44.3268V36.3679L37.2048 40.3283C37.2048 40.3283 35.2627 41.8134 34.0441 42.6131C32.7113 43.4509 30.4645 44.3268 30.4645 44.3268Z" fill="url(#paint0_linear)"/>
<path d="M43.4123 24.9814C43.4503 24.3721 43.4503 23.6867 43.4503 23.6486C44.4024 23.6486 44.4404 23.6486 44.9736 23.6486C44.9736 20.8687 43.5646 20.526 43.0695 19.7644C43.0695 19.7644 42.9553 19.1551 42.8411 18.5839C42.7268 18.165 42.6126 17.7842 42.5364 17.6318C43.4503 17.3653 43.4503 17.3653 43.9835 17.1749C43.1838 14.5092 41.6986 14.5854 41.0132 14.0142V13.9761C40.9751 13.938 40.7466 13.4049 40.442 12.9098C40.1754 12.4529 39.8708 12.0721 39.7184 11.8436C40.5181 11.2724 40.5181 11.2724 40.9751 10.9677C39.3757 8.68287 38.0048 9.216 37.167 8.87327C37.1289 8.83519 36.5577 8.2259 35.9865 7.73085C35.5676 7.38812 35.1107 7.12156 35.0345 7.04539C35.6057 6.28378 35.6057 6.2457 35.9484 5.82681C33.7017 4.18934 32.5973 5.10328 31.6834 5.0652C31.5692 5.02712 30.9979 4.76055 30.3506 4.49399C29.8555 4.30358 29.2843 4.11318 29.1701 4.0751C29.4747 3.16116 29.4747 3.16116 29.627 2.62803C26.9995 1.79025 26.1998 3.00884 25.3239 3.23732C25.2478 3.23732 24.6385 3.12308 24.0292 3.085C23.458 3.04692 22.6963 3.085 22.6202 3.085C22.6202 2.13298 22.6202 2.0949 22.6202 1.56177C19.8403 1.56177 19.4976 2.97076 18.7359 3.46581C18.6979 3.46581 18.1647 3.65621 17.365 3.84661C16.6034 4.0751 16.1465 4.18934 15.9561 4.22742C15.6133 3.31348 15.6133 3.31348 15.4229 2.78035C12.8334 3.73237 12.9858 5.17944 12.4145 5.94105C12.4145 5.94105 10.7771 6.96923 10.5105 7.15964C9.93929 6.39802 9.9393 6.35994 9.59657 5.94105C7.38789 7.57853 7.92102 8.94943 7.61637 9.78721C7.61637 9.78721 7.42597 10.0157 7.38788 10.0538C7.38788 10.0538 6.55011 11.082 6.1693 11.577C5.36961 11.0058 5.36961 11.0058 4.95072 10.6631C3.31325 12.9098 4.26526 14.0142 4.1891 14.9281C4.15102 14.9662 3.84638 15.5755 3.57981 16.2229C3.38941 16.756 3.23708 17.2891 3.23708 17.3272C2.32315 17.0226 2.32315 17.0226 1.79002 16.8702C0.952239 19.4978 2.17082 20.2975 2.39931 21.1734C2.39931 21.2114 2.36123 21.6303 2.36123 21.7065C2.36123 21.8207 2.32315 22.3919 2.28507 22.5062C2.28507 22.5062 2.24698 23.4582 2.24698 23.6867C1.29497 23.6867 1.25689 23.6867 0.723755 23.6867C0.723755 26.4666 2.13274 26.8093 2.62779 27.5709L2.70395 28.0279C2.8182 28.5991 2.97052 29.1703 3.16092 29.7034C2.24698 29.97 2.24698 29.97 1.71385 30.1604C2.51355 32.8261 3.9987 32.7499 4.68415 33.3211C4.68415 33.3211 4.68415 33.3592 4.72223 33.3592C4.76031 33.4354 5.06496 33.9685 5.25536 34.2731C5.44577 34.5778 5.82657 35.1871 6.01698 35.4536C5.21728 36.0248 5.21728 36.0248 4.76031 36.3295C6.3597 38.6143 7.73061 38.0812 8.56839 38.4239C8.60647 38.462 9.02536 38.8809 9.48233 39.2998C10.0155 39.7568 10.5867 40.1756 10.7009 40.2518C10.1297 41.0134 10.1297 41.0515 9.78697 41.4704C12.0337 43.1079 13.1381 42.1939 14.052 42.232C14.3567 42.3843 15.461 42.8794 16.5273 43.2221C16.2226 44.136 16.2226 44.136 16.0703 44.6692C18.6979 45.507 19.4976 44.2884 20.3734 44.0599C21.6301 44.2122 22.6583 44.2122 22.8487 44.2122C22.8487 45.1642 22.8487 45.2023 22.8487 45.7354C25.6286 45.7354 25.9713 44.3264 26.7329 43.8314C26.771 43.8314 27.3041 43.7172 28.0657 43.4887V32.1787L37.7002 37.967C38.6522 36.9769 39.2234 36.1391 39.4899 35.7583C40.2896 36.3295 40.2896 36.3295 40.7085 36.6722C42.346 34.4255 41.394 33.3211 41.4701 32.4072C41.5463 32.2168 41.8129 31.6836 42.0414 31.1505C42.2318 30.6174 42.3841 30.0842 42.4222 30.0081C43.3361 30.3127 43.3361 30.3127 43.8692 30.4651C44.707 27.8375 43.4884 27.0378 43.2599 26.1619C43.298 26.1238 43.3742 25.5526 43.4123 24.9814ZM22.8487 25.9715C21.592 25.9715 20.5638 24.9433 20.5638 23.6867C20.5638 22.43 21.592 21.4018 22.8487 21.4018C24.1053 21.4018 25.1335 22.43 25.1335 23.6867C25.1335 24.9433 24.1053 25.9715 22.8487 25.9715Z" fill="url(#paint1_linear)"/>
</g>
<defs>
<linearGradient id="paint0_linear" x1="34.5994" y1="43.3032" x2="30.301" y2="37.7881" gradientUnits="userSpaceOnUse">
<stop stop-color="#5AAFAF"/>
<stop offset="0.1793" stop-color="#00A1AE"/>
<stop offset="0.375" stop-color="#0096AD"/>
<stop offset="0.5753" stop-color="#008FAB"/>
<stop offset="0.781" stop-color="#008BAA"/>
<stop offset="1" stop-color="#008AAA"/>
</linearGradient>
<linearGradient id="paint1_linear" x1="23.7439" y1="24.6074" x2="38.8704" y2="40.4711" gradientUnits="userSpaceOnUse">
<stop offset="0.00044987" stop-color="#C8B594"/>
<stop offset="1" stop-color="#E1C9A4"/>
</linearGradient>
<clipPath id="clip0">
<rect width="250" height="47.6009" fill="white"/>
</clipPath>
</defs>
</svg>
