<svg width="250" height="99" viewBox="0 0 250 99" fill="none" xmlns="http://www.w3.org/2000/svg">
<path fill-rule="evenodd" clip-rule="evenodd" d="M234.286 12.3838C235.241 8.33406 232.733 4.2759 228.685 3.31965C224.634 2.36339 220.578 4.87114 219.622 8.92089C218.666 12.9706 221.172 17.0288 225.223 17.985C229.271 18.9413 233.33 16.4335 234.286 12.3838Z" fill="#A49023"/>
<path fill-rule="evenodd" clip-rule="evenodd" d="M215.477 15.0434C217.903 11.6624 217.128 6.95484 213.748 4.52882C210.368 2.10281 205.661 2.877 203.235 6.25801C200.809 9.63905 201.583 14.3466 204.964 16.7726C208.344 19.1986 213.05 18.4244 215.477 15.0434Z" fill="#BB9E1A"/>
<path fill-rule="evenodd" clip-rule="evenodd" d="M199.135 12.1762C199.983 8.10186 197.367 4.11218 193.293 3.26495C189.22 2.4177 185.231 5.03374 184.383 9.10804C183.536 13.1823 186.152 17.172 190.226 18.0192C194.299 18.8665 198.288 16.2504 199.135 12.1762Z" fill="#D2AB11"/>
<path fill-rule="evenodd" clip-rule="evenodd" d="M179.469 15.9833C182.411 13.0408 182.411 8.27022 179.469 5.32779C176.527 2.38537 171.757 2.38537 168.815 5.32779C165.873 8.27022 165.873 13.0408 168.815 15.9833C171.757 18.9257 176.527 18.9257 179.469 15.9833Z" fill="#FFC600"/>
<path fill-rule="evenodd" clip-rule="evenodd" d="M205.703 25.9138H218.523V32.5873H218.689C220.053 30.0278 221.679 28.0904 223.569 26.8227C225.458 25.5311 227.826 24.9092 230.672 24.9092C231.414 24.9092 232.153 24.9332 232.895 25.0048C233.637 25.0527 234.33 25.1723 234.952 25.3397V37.0602C234.044 36.7732 233.134 36.558 232.25 36.4145C231.366 36.271 230.433 36.1992 229.475 36.1992C227.013 36.1992 225.076 36.5341 223.664 37.2277C222.229 37.9213 221.153 38.8781 220.363 40.0981C219.599 41.318 219.097 42.801 218.857 44.4991C218.618 46.2215 218.523 48.0871 218.523 50.1441V67.5098H205.703V25.9138Z" fill="#002D41"/>
<path fill-rule="evenodd" clip-rule="evenodd" d="M190.038 62.2472H190.206V67.4617H201.996V46.3408C201.996 42.8725 201.709 39.8109 201.135 37.1558C200.561 34.5006 199.557 32.2524 198.098 30.4344C196.639 28.6165 194.702 27.2291 192.286 26.2964C189.871 25.3635 186.786 24.8851 183.031 24.8851C179.611 24.8851 176.311 25.4591 173.13 26.5595C169.949 27.6597 167.151 29.3341 164.759 31.5586L171.599 38.567C172.986 37.0361 174.517 35.8164 176.263 34.9313C178.009 34.0463 179.922 33.6156 182.027 33.6156C184.251 33.6156 186.164 34.2855 187.79 35.6249C189.416 36.9644 190.229 38.7823 190.229 41.0545C188.602 41.0545 186.852 41.0951 184.962 41.1388C184.798 41.1426 184.632 41.1466 184.466 41.1504C182.385 41.1981 180.304 41.3655 178.224 41.6525C176.143 41.9396 174.134 42.3703 172.197 42.9683C170.26 43.5663 168.538 44.4034 167.031 45.4798C165.524 46.58 164.329 47.9434 163.444 49.5939C162.559 51.2443 162.128 53.2774 162.128 55.6694C162.128 57.7743 162.535 59.6162 163.324 61.2187C164.137 62.8213 165.214 64.1608 166.577 65.2372C167.94 66.3136 169.519 67.1268 171.312 67.6771C173.106 68.2271 174.971 68.4902 176.908 68.4902C179.515 68.4902 182.003 67.9878 184.37 67.0312C186.714 66.0743 188.603 64.4717 190.038 62.2472ZM183.414 49.3783C184.873 49.3064 186.068 49.2585 187.049 49.2585H190.182V51.9614C190.182 53.277 189.919 54.4253 189.369 55.3819C188.819 56.3388 188.101 57.1519 187.192 57.7739C186.283 58.3958 185.255 58.8982 184.083 59.2329C182.911 59.5678 181.692 59.7353 180.448 59.7353C179.037 59.7353 177.674 59.3764 176.358 58.6349C175.043 57.8934 174.397 56.7454 174.397 55.2145C174.397 53.8033 174.876 52.679 175.808 51.8898C176.741 51.1004 177.889 50.5024 179.228 50.0958C180.567 49.713 181.955 49.4739 183.414 49.3783Z" fill="#002D41"/>
<path fill-rule="evenodd" clip-rule="evenodd" d="M94.1116 25.9611H106.381V31.6061H106.548C106.955 30.8167 107.505 30.0036 108.246 29.2142C108.987 28.4247 109.872 27.7072 110.901 27.0853C111.929 26.4633 113.077 25.9372 114.392 25.5544C115.708 25.1478 117.119 24.9564 118.649 24.9564C121.543 24.9564 124.126 25.5544 126.374 26.7503C128.622 27.9463 130.32 29.8361 131.444 32.3953C132.927 29.7163 134.721 27.8028 136.825 26.6787C138.93 25.5306 141.513 24.9803 144.574 24.9803C147.348 24.9803 149.692 25.4588 151.605 26.3917C153.519 27.3246 155.025 28.6162 156.126 30.2427C157.226 31.8692 158.039 33.7827 158.517 35.9595C158.995 38.16 159.235 40.5041 159.235 43.0156V67.533H146.44V43.3026C146.44 41.3652 146.033 39.6907 145.196 38.3036C144.383 36.9162 142.9 36.1986 140.795 36.1986C139.313 36.1986 138.069 36.4377 137.089 36.9162C136.084 37.3946 135.295 38.0642 134.697 38.9255C134.099 39.7865 133.669 40.7672 133.429 41.9154C133.166 43.0635 133.047 44.2595 133.047 45.5032V67.4613H120.299V45.5032C120.299 44.7617 120.276 43.8529 120.204 42.7765C120.156 41.7001 119.941 40.6716 119.606 39.6907C119.271 38.7341 118.721 37.897 117.932 37.2032C117.167 36.5096 116.043 36.1747 114.56 36.1747C112.91 36.1747 111.57 36.4856 110.542 37.0836C109.514 37.6816 108.748 38.471 108.198 39.4756C107.648 40.4801 107.313 41.6045 107.122 42.8481C106.955 44.092 106.859 45.4076 106.859 46.771V67.4374H94.064V25.9611H94.1116Z" fill="#002D41"/>
<path fill-rule="evenodd" clip-rule="evenodd" d="M44.7018 46.6997C44.7018 43.399 45.2997 40.409 46.4955 37.73C47.6913 35.0511 49.3415 32.7547 51.4222 30.8412C53.5029 28.9277 55.9661 27.4686 58.7644 26.4401C61.5865 25.4114 64.5997 24.9092 67.7806 24.9092C70.9615 24.9092 73.9747 25.4114 76.797 26.4401C79.6191 27.4686 82.0584 28.9277 84.139 30.8412C86.2197 32.7547 87.8699 35.0511 89.0657 37.73C90.2615 40.409 90.8594 43.399 90.8594 46.6997C90.8594 50.0006 90.2615 52.9905 89.0657 55.6695C87.8699 58.3485 86.2197 60.6449 84.139 62.5584C82.0584 64.4719 79.5951 65.931 76.797 66.9595C73.9747 67.988 70.9615 68.4904 67.7806 68.4904C64.576 68.4904 61.5865 67.988 58.7644 66.9595C55.9424 65.931 53.4789 64.4719 51.4222 62.5584C49.3415 60.6449 47.6913 58.3485 46.4955 55.6695C45.2997 52.9905 44.7018 50.0006 44.7018 46.6997Z" fill="#002D41"/>
<path fill-rule="evenodd" clip-rule="evenodd" d="M34.5854 38.1594C32.6961 35.8152 30.2326 34.6432 27.1475 34.6432C26.0713 34.6432 25.019 34.9062 23.9906 35.4086C22.9622 35.911 22.4601 36.796 22.4601 38.0636C22.4601 39.0921 22.9862 39.8336 24.0385 40.336C25.0908 40.8145 26.4301 41.245 28.0564 41.6276C29.6826 42.0104 31.4284 42.3931 33.27 42.8236C35.1116 43.2541 36.8574 43.924 38.4837 44.8329C40.1099 45.7419 41.4492 46.9856 42.5015 48.5404C43.5538 50.119 44.0799 52.2 44.0799 54.8313C44.0799 57.5103 43.5059 59.7108 42.3341 61.4569C41.1622 63.2029 39.6795 64.5903 37.8379 65.6428C36.0204 66.6953 33.9635 67.4368 31.6917 67.8673C29.4196 68.2978 27.1715 68.5132 24.9473 68.5132C22.0534 68.5132 19.1119 68.1064 16.1463 67.2693C13.1807 66.4322 10.6696 64.9732 8.63672 62.8682L16.4094 54.2333C17.6052 55.7163 18.9205 56.8404 20.3794 57.6059C21.8383 58.3713 23.5362 58.754 25.4734 58.754C26.9562 58.754 28.2954 58.5388 29.4912 58.1083C30.687 57.6777 31.2849 56.8883 31.2849 55.764C31.2849 54.6878 30.7589 53.8744 29.7066 53.3243C28.6543 52.774 27.315 52.3196 25.6887 51.9609C24.0625 51.602 22.3167 51.1955 20.4751 50.7649C18.6335 50.3344 16.8877 49.6885 15.2614 48.8514C13.6351 47.9903 12.2959 46.7944 11.2435 45.2156C10.1913 43.6609 9.6651 41.556 9.6651 38.9247C9.6651 36.485 10.1673 34.3561 11.1718 32.6101C12.1763 30.8401 13.4677 29.381 15.094 28.2567C16.7203 27.1086 18.5857 26.2713 20.6903 25.7452C22.7948 25.1951 24.9234 24.9318 27.0998 24.9318C29.8261 24.9318 32.6005 25.3386 35.3986 26.1278C38.1967 26.9172 40.5643 28.3523 42.5015 30.4095L34.5854 38.1594Z" fill="#002D41"/>
<path d="M12.3025 82.416L17.1853 94.6044L22.0681 82.416H24.6223V97.354H22.6528V91.5367L22.8374 85.258L17.9341 97.354H16.4262L11.5331 85.2887L11.728 91.5367V97.354H9.75848V82.416H12.3025ZM43.0547 90.4494H36.582V95.7432H44.1011V97.354H34.6124V82.416H43.9986V84.037H36.582V88.8386H43.0547V90.4494ZM63.5899 84.037H58.7893V97.354H56.8301V84.037H52.0395V82.416H63.5899V84.037ZM80.7607 90.4494H74.2878V95.7432H81.807V97.354H72.3183V82.416H81.7044V84.037H74.2878V88.8386H80.7607V90.4494ZM102.26 90.3672C102.26 91.8309 102.014 93.1098 101.522 94.2043C101.029 95.2919 100.332 96.1229 99.429 96.6974C98.5263 97.2718 97.4731 97.5592 96.2696 97.5592C95.0933 97.5592 94.0504 97.2718 93.141 96.6974C92.2313 96.116 91.5236 95.2919 91.0175 94.2247C90.5183 93.151 90.2618 91.9097 90.2481 90.5006V89.4234C90.2481 87.987 90.4977 86.7181 90.9971 85.6171C91.4962 84.5159 92.2007 83.6746 93.1101 83.0932C94.0265 82.5049 95.0729 82.2109 96.2492 82.2109C97.4458 82.2109 98.499 82.5015 99.4086 83.0829C100.325 83.6574 101.029 84.4953 101.522 85.5965C102.014 86.6908 102.26 87.9664 102.26 89.4234V90.3672ZM100.301 89.4028C100.301 87.6313 99.9454 86.2737 99.2341 85.3297C98.5229 84.3791 97.528 83.9036 96.2492 83.9036C95.0044 83.9036 94.0231 84.3791 93.3051 85.3297C92.5937 86.2737 92.228 87.5869 92.2074 89.2693V90.3672C92.2074 92.0841 92.5664 93.4349 93.2845 94.4197C94.0095 95.3978 95.0044 95.8869 96.2696 95.8869C97.5416 95.8869 98.5263 95.4251 99.224 94.5019C99.9215 93.5717 100.28 92.2412 100.301 90.5109V89.4028ZM117.205 91.311H113.697V97.354H111.717V82.416H116.661C118.344 82.416 119.636 82.799 120.539 83.5651C121.448 84.3312 121.903 85.4461 121.903 86.9097C121.903 87.8399 121.65 88.6503 121.144 89.3412C120.645 90.0321 119.947 90.5485 119.051 90.8904L122.56 97.2308V97.354H120.446L117.205 91.311ZM113.697 89.7003H116.723C117.701 89.7003 118.477 89.4473 119.051 88.9411C119.633 88.435 119.923 87.7578 119.923 86.9097C119.923 85.9863 119.646 85.2784 119.092 84.7861C118.545 84.2936 117.752 84.044 116.713 84.037H113.697V89.7003ZM142.674 90.3672C142.674 91.8309 142.428 93.1098 141.936 94.2043C141.443 95.2919 140.746 96.1229 139.843 96.6974C138.94 97.2718 137.887 97.5592 136.684 97.5592C135.507 97.5592 134.465 97.2718 133.555 96.6974C132.645 96.116 131.938 95.2919 131.432 94.2247C130.932 93.151 130.676 91.9097 130.662 90.5006V89.4234C130.662 87.987 130.912 86.7181 131.411 85.6171C131.91 84.5159 132.615 83.6746 133.524 83.0932C134.441 82.5049 135.487 82.2109 136.663 82.2109C137.86 82.2109 138.913 82.5015 139.823 83.0829C140.739 83.6574 141.443 84.4953 141.936 85.5965C142.428 86.6908 142.674 87.9664 142.674 89.4234V90.3672ZM140.715 89.4028C140.715 87.6313 140.359 86.2737 139.648 85.3297C138.937 84.3791 137.942 83.9036 136.663 83.9036C135.419 83.9036 134.437 84.3791 133.719 85.3297C133.008 86.2737 132.642 87.5869 132.621 89.2693V90.3672C132.621 92.0841 132.98 93.4349 133.699 94.4197C134.424 95.3978 135.419 95.8869 136.684 95.8869C137.956 95.8869 138.94 95.4251 139.638 94.5019C140.336 93.5717 140.695 92.2412 140.715 90.5109V89.4028ZM154.121 95.7432H161.199V97.354H152.141V82.416H154.121V95.7432ZM180.77 90.3672C180.77 91.8309 180.524 93.1098 180.032 94.2043C179.539 95.2919 178.842 96.1229 177.939 96.6974C177.036 97.2718 175.983 97.5592 174.779 97.5592C173.603 97.5592 172.56 97.2718 171.651 96.6974C170.741 96.116 170.033 95.2919 169.527 94.2247C169.028 93.151 168.772 91.9097 168.758 90.5006V89.4234C168.758 87.987 169.008 86.7181 169.507 85.6171C170.006 84.5159 170.711 83.6746 171.62 83.0932C172.536 82.5049 173.583 82.2109 174.759 82.2109C175.956 82.2109 177.009 82.5015 177.918 83.0829C178.835 83.6574 179.539 84.4953 180.032 85.5965C180.524 86.6908 180.77 87.9664 180.77 89.4234V90.3672ZM178.811 89.4028C178.811 87.6313 178.455 86.2737 177.744 85.3297C177.033 84.3791 176.038 83.9036 174.759 83.9036C173.514 83.9036 172.533 84.3791 171.815 85.3297C171.104 86.2737 170.738 87.5869 170.717 89.2693V90.3672C170.717 92.0841 171.076 93.4349 171.794 94.4197C172.519 95.3978 173.514 95.8869 174.779 95.8869C176.051 95.8869 177.036 95.4251 177.734 94.5019C178.431 93.5717 178.79 92.2412 178.811 90.5109V89.4028ZM201.264 95.3944C200.758 96.1193 200.051 96.6631 199.141 97.0256C198.238 97.3813 197.185 97.5592 195.982 97.5592C194.764 97.5592 193.684 97.2754 192.74 96.7077C191.796 96.133 191.064 95.3192 190.545 94.2659C190.032 93.2126 189.769 91.9916 189.755 90.6032V89.3002C189.755 87.0499 190.278 85.3057 191.324 84.0679C192.378 82.8299 193.855 82.2109 195.756 82.2109C197.315 82.2109 198.57 82.611 199.521 83.4113C200.471 84.2047 201.052 85.3332 201.264 86.7969H199.295C198.926 84.8201 197.749 83.8317 195.766 83.8317C194.446 83.8317 193.444 84.2969 192.76 85.2271C192.083 86.1506 191.742 87.4911 191.735 89.249V90.4697C191.735 92.1456 192.118 93.4792 192.884 94.471C193.65 95.456 194.685 95.9485 195.992 95.9485C196.73 95.9485 197.377 95.8664 197.93 95.7023C198.484 95.5379 198.943 95.261 199.305 94.8712V91.5163H195.848V89.9159H201.264V95.3944ZM213.183 97.354H211.214V82.416H213.183V97.354ZM231.739 93.4553H225.481L224.075 97.354H222.044L227.748 82.416H229.472L235.185 97.354H233.164L231.739 93.4553ZM226.075 91.8342H231.153L228.609 84.8475L226.075 91.8342Z" fill="#002D41"/>
</svg>
