<svg width="233" height="67" viewBox="0 0 233 67" fill="none" xmlns="http://www.w3.org/2000/svg">
<path d="M1.43767 19.3718L0.880371 22.2345H6.10012L1.18186 48.1749H4.26377L9.17289 22.2345H14.3439L14.9012 19.3718H1.43767Z" fill="#07A9E1"/>
<path fill-rule="evenodd" clip-rule="evenodd" d="M23.7966 31.7634H16.6614L18.5404 22.1035H26.102L26.6197 19.3718H15.9762L10.5067 48.1749H21.6588L22.2161 45.3975H14.0972L16.1893 34.4159H23.285L23.7966 31.7634Z" fill="#07A9E1"/>
<path fill-rule="evenodd" clip-rule="evenodd" d="M35.1042 44.8561C34.4342 45.1515 33.3379 45.4013 32.208 45.4013C28.5597 45.4013 27.4207 42.1671 27.4207 37.5077C27.4207 32.7234 29.0622 27.8082 31.5776 24.7872C33.0029 23.1518 34.894 22.1865 36.8278 22.1865C37.708 22.1865 38.5058 22.3113 39.0936 22.5641L39.9707 19.875C39.5961 19.6253 38.4175 19.3695 37.1598 19.3695C34.7235 19.3695 31.9583 20.3379 29.5586 22.7742C25.7823 26.6357 24.2292 32.7661 24.2292 38.3513C24.2292 42.9254 25.6605 48.1756 31.535 48.1756C33.0881 48.1725 34.3916 47.9655 35.2717 47.5452L35.1042 44.8561Z" fill="#07A9E1"/>
<path fill-rule="evenodd" clip-rule="evenodd" d="M39.0722 48.1749L41.676 34.288C42.3155 30.865 42.9185 27.1893 43.2596 24.2414H43.3448C43.7285 27.6613 44.1579 30.2681 44.7579 33.1734L47.791 48.1749H50.5684L55.9983 19.3718H53.3062L50.611 33.3013C49.9715 36.6817 49.6274 40.056 49.201 43.1744H49.1158C48.7747 40.5249 48.2631 37.8328 47.7088 34.9276L44.7609 19.3718H41.81L36.3375 48.1749H39.0722V48.1749Z" fill="#07A9E1"/>
<path fill-rule="evenodd" clip-rule="evenodd" d="M65.1588 22.0852C68.0823 22.0852 68.2925 25.2159 68.2925 28.5506C68.2925 31.7269 66.8307 40.9482 63.5752 44.2494C62.7804 45.0047 61.946 45.4615 61.0263 45.4615C57.8134 45.4615 57.6886 41.4964 57.6886 39.1149C57.6886 34.9397 59.397 26.4675 62.5276 23.3369C63.3194 22.5451 64.1995 22.0852 65.1588 22.0852ZM65.6186 19.3718C63.7823 19.3718 61.9856 20.124 60.3989 21.6711C56.5557 25.4656 54.5519 33.9013 54.5519 39.2824C54.5519 42.2882 55.1396 48.1749 60.5664 48.1749C62.4484 48.1749 64.2391 47.4227 65.8227 45.7965C69.4558 42.1603 71.4627 33.6881 71.4627 28.4714C71.4627 24.9235 70.9602 19.3718 65.6186 19.3718Z" fill="#07A9E1"/>
<path fill-rule="evenodd" clip-rule="evenodd" d="M100.427 24.4796C100.936 24.3547 101.74 24.2695 102.885 24.2695C105.257 24.2695 107.252 25.1557 107.252 27.9117C107.252 30.753 104.831 33.1254 101.149 33.1254C100.132 33.1223 99.4556 33.0401 98.8192 32.9152L100.427 24.4796ZM89.9541 48.1755H95.9291L97.8781 37.8731C98.5177 37.9583 99.3643 38.0436 100.381 38.0436C103.856 38.0436 107.163 37.2366 109.493 35.4155C111.738 33.6766 113.394 30.9662 113.394 27.3605C113.394 24.6045 112.207 22.6158 110.3 21.3002C108.223 19.8141 105.254 19.3908 102.711 19.3908C99.9581 19.3908 97.0711 19.6923 95.25 20.1552L89.9541 48.1755Z" fill="#137AB9"/>
<path fill-rule="evenodd" clip-rule="evenodd" d="M69.4132 46.1466C70.741 47.1394 73.5123 48.0926 77.4043 48.1749C83.6138 48.1749 88.7452 44.9407 88.7452 38.7342C88.7452 35.4239 86.5921 33.146 83.1966 31.3645C80.8394 30.0367 79.1432 29.0439 79.1432 27.4299C79.1432 25.8981 80.5897 24.4911 83.3641 24.4911C85.6816 24.4515 87.6702 25.2372 88.5808 25.7336L90.4415 20.7697C89.2447 20.1027 87.253 19.3597 83.8635 19.3597C77.7758 19.3597 72.8484 22.7979 72.8484 28.4288C72.8514 32.071 75.6654 34.2241 78.6468 35.8381C81.214 37.1659 82.4139 38.1983 82.4139 39.7697C82.4139 41.9654 80.3035 43.0404 77.9829 43.0404C75.4156 43.0404 73.0585 42.2577 71.4018 41.2589L69.4132 46.1466Z" fill="#137AB9"/>
<path fill-rule="evenodd" clip-rule="evenodd" d="M131.594 30.7706H121.331L122.531 24.616H133.387L134.417 19.3597H117.356L111.881 48.1749H129.544L130.525 42.9155H119.025L120.35 35.9447H130.61L131.594 30.7706Z" fill="#137AB9"/>
<path fill-rule="evenodd" clip-rule="evenodd" d="M151.562 30.7741H141.302L142.505 24.6164H153.359L154.382 19.3631H137.328L131.855 48.1723H149.509L150.493 42.913H138.993L140.318 35.9451H150.581L151.562 30.7741Z" fill="#137AB9"/>
<path fill-rule="evenodd" clip-rule="evenodd" d="M162.443 24.4271C163.073 24.3023 163.957 24.2596 165.01 24.2596C170.02 24.2596 172.505 26.9152 172.505 31.3736C172.505 34.7875 171.494 37.7293 169.56 39.922C167.705 42.0689 164.8 43.2505 161.517 43.2505C160.467 43.2505 159.577 43.1653 158.862 43.08L162.443 24.4271ZM151.918 47.6267C153.304 47.8795 156.252 48.1749 159.663 48.1749C165.808 48.1749 169.977 46.9963 173.263 44.3865C176.796 41.5665 179.113 36.8492 179.113 31.334C179.068 27.1619 177.639 24.3419 175.367 22.4476C172.968 20.3859 169.429 19.3718 165.007 19.3718C162.272 19.3718 159.574 19.585 157.175 20.0022L151.918 47.6267Z" fill="#137AB9"/>
<path fill-rule="evenodd" clip-rule="evenodd" d="M232.011 33.7892C231.987 32.1934 231.131 30.9479 230.51 30.1835C228.378 27.5675 219.525 18.6446 207.201 6.84081C206.707 6.36877 206.123 5.97897 205.474 5.76884C204.996 5.61352 204.448 5.51912 203.966 5.66225C203.826 5.70184 203.296 5.8602 203.287 6.09469C203.284 6.17996 203.351 6.25001 203.394 6.2896C210.681 13.6441 224.986 28.137 226.496 29.6688C226.855 30.0343 227.172 30.4089 227.443 30.7895C228.734 32.6137 228.734 34.9708 227.443 36.795C227.175 37.1757 226.858 37.5502 226.496 37.9157C224.986 39.4475 210.681 53.9373 203.394 61.2949C203.373 61.3162 203.299 61.3863 203.29 61.4898C203.266 61.706 203.586 61.8948 203.677 61.9497C204.237 62.2847 206.016 61.6421 206.671 61.2523C209.655 59.4768 228.363 39.6789 230.513 37.398C230.83 37.063 232.045 35.7169 232.011 33.7892Z" fill="#07A9E1"/>
<path fill-rule="evenodd" clip-rule="evenodd" d="M223.298 29.139C223.146 28.9867 222.866 28.7005 222.482 28.3107C215.974 21.4891 205.017 10.5592 200.571 6.14042C199.505 5.06541 198.558 4.10917 197.775 3.32042C197.733 3.27778 197.69 3.24428 197.647 3.20165C196.642 2.18145 195.744 1.45665 193.822 1.15821C193.323 1.06685 192.82 1.01508 192.303 0.984623C191.529 0.984623 190.643 0.984623 189.711 0.984623C189.315 0.981577 188.919 0.978532 188.533 0.978532H187.646C186.992 0.978532 186.373 0.981577 185.804 0.984623C183.681 0.984623 181.732 0.984623 180.639 0.978532C179.037 0.972441 178.303 2.6748 179.363 3.82595C179.838 4.34061 193.975 18.3676 202.444 27.1291C202.764 27.4519 203.214 27.9239 203.717 28.5178C205.224 30.2962 206.957 32.1661 206.914 33.972C206.881 35.3972 205.961 36.7707 204.253 38.5614C196.176 47.0183 179.875 63.1892 179.363 63.7435C178.3 64.8946 179.037 66.597 180.639 66.5909C181.726 66.5848 183.669 66.5848 185.786 66.5848C186.358 66.5878 186.986 66.5909 187.646 66.5909H188.533C188.919 66.5909 189.315 66.5878 189.711 66.5848C190.643 66.5848 191.529 66.5848 192.303 66.5848C192.817 66.5574 193.323 66.5056 193.822 66.4112C195.744 66.1128 196.642 65.388 197.647 64.3678C197.69 64.3251 197.733 64.2916 197.775 64.249C198.558 63.4602 199.505 62.504 200.571 61.429C205.017 57.0102 215.974 46.0834 222.482 39.2618C222.866 38.872 223.149 38.5857 223.298 38.4334C224.73 36.9808 225.463 35.4125 225.427 33.7862C225.467 32.16 224.733 30.5947 223.298 29.139Z" fill="#137AB9"/>
<path fill-rule="evenodd" clip-rule="evenodd" d="M201.36 28.5211C200.397 27.5557 199.344 26.4898 198.229 25.3722C197.79 24.9306 197.069 24.9337 196.633 25.3783C195.293 26.7578 194.042 28.0612 192.939 29.2276C189.681 32.6597 189.824 36.0584 192.723 39.0063C193.134 39.4235 194.462 40.7695 196.326 42.6607C196.767 43.1084 197.495 43.1084 197.934 42.6577C199.377 41.1776 200.723 39.7889 201.893 38.5647C205.468 34.825 205.602 32.9003 201.36 28.5211Z" fill="#07A9E1"/>
</svg>
