<svg width="250" height="73" viewBox="0 0 250 73" fill="none" xmlns="http://www.w3.org/2000/svg">
<path d="M15.9554 13.9958C25.8729 4.76559 37.5089 -0.14407 47.0336 0.00321978C47.3282 0.00321978 47.6228 0.00321978 47.9664 0.0523164C53.1707 0.2978 57.7367 2.16347 60.8789 5.69843C64.0211 9.23339 65.3958 14.0449 65.1503 19.3964C64.7084 29.2648 58.7677 41.0971 48.5065 50.6709C40.2092 58.4282 30.6844 63.0924 22.2398 64.3689C28.0332 62.5523 34.023 59.0174 39.4727 53.9604C48.1628 45.8595 53.1707 35.8929 53.5635 27.4973C53.7599 22.9804 52.6306 18.9054 49.9303 15.9105C47.2791 12.9156 43.4496 11.3445 38.9818 11.1482C30.8317 10.6572 20.6196 14.7813 11.9295 22.8822C6.47974 27.9392 2.45381 33.7817 0.146266 39.4769C2.15923 30.9832 7.60896 21.753 15.9554 13.9958ZM142.723 16.2051V8.44784H146.307C147.338 8.44784 148.173 8.79152 148.86 9.47887C149.548 10.2153 149.891 11.0009 149.891 11.9337V16.2051V16.4997V43.6992C149.891 46.8905 150.186 48.6089 150.824 48.8053C151.266 48.9526 151.806 49.0508 152.395 49.0508C152.837 49.0508 153.328 49.0017 153.917 48.9035C156.274 48.9035 157.452 49.8854 157.452 51.8002V55.0405C155.341 55.5315 153.475 55.777 151.757 55.777C151.217 55.777 150.677 55.777 150.186 55.7279C147.78 55.5806 145.914 54.6478 144.638 52.9294C143.361 51.211 142.723 48.167 142.723 43.7483V16.4997V16.2051ZM162.46 20.6729V16.4997H169.628V20.6729H179.3C180.331 20.6729 181.166 21.0166 181.853 21.7039C182.54 22.4404 182.884 23.2259 182.884 24.1588V27.3991H169.677V43.4046C169.677 45.8104 170.217 47.4306 171.346 48.2652C172.279 48.9526 173.998 49.2471 176.502 49.2471C177.582 49.2471 178.76 49.1489 180.037 48.9526C182.393 48.9526 183.572 49.8854 183.572 51.8002V55.0405C180.969 55.6297 178.613 55.9243 176.502 55.9243C171.837 55.9243 168.401 55.0405 166.24 53.3222C163.736 51.3583 162.509 48.0197 162.509 43.3555V27.4482H161.478C160.447 27.4482 159.612 27.1046 158.925 26.3681C158.238 25.6808 157.894 24.8952 157.894 23.9624V20.722H162.46V20.6729ZM11.684 28.0374C17.5756 22.5877 24.3018 19.2982 30.2425 18.4636C27.0513 19.7401 23.7618 21.8021 20.7669 24.6006C12.0768 32.7016 9.03277 43.7483 13.9915 49.2962C18.9503 54.8442 29.9971 52.7821 38.6872 44.7302C41.6821 41.9317 43.9896 38.7896 45.5607 35.6474C44.186 41.6372 40.3565 48.167 34.4649 53.6658C23.4181 63.9761 9.32735 66.5782 3.04297 59.5083C-3.2905 52.3893 0.588136 38.3477 11.684 28.0374ZM27.1004 24.8461C30.6353 21.5566 34.7103 19.7892 38.098 19.7401C38.3435 19.7401 38.5399 19.7401 38.7854 19.7401C40.7001 19.8383 42.3694 20.5256 43.4986 21.8021C44.6279 23.0786 45.1679 24.8461 45.0697 26.81C44.9225 30.4431 42.7622 34.7636 38.9818 38.2495C33.1883 43.601 25.8729 44.9757 22.5835 41.2444C19.294 37.5621 21.3069 30.2467 27.1004 24.8461ZM106.735 38.1513C106.735 26.2699 111.89 20.3292 122.102 20.3292C127.699 20.3292 131.676 22.1458 134.033 25.7299C135.899 28.5284 136.831 32.6525 136.831 38.1513C136.831 40.3116 135.653 41.4408 133.247 41.4408H114.051C114.149 46.7432 117.193 49.3453 123.035 49.3453C126.227 49.3453 129.516 48.7071 132.855 47.4306C133.395 47.2833 133.837 47.2342 134.278 47.2342C135.8 47.2342 136.586 48.0197 136.586 49.5417V52.5857C132.855 54.8933 128.338 56.0225 123.084 56.0225C112.185 55.9734 106.735 50.0327 106.735 38.1513ZM185.584 38.1513C185.584 26.2699 190.74 20.3292 200.952 20.3292C206.549 20.3292 210.526 22.1458 212.882 25.7299C214.748 28.5284 215.681 32.6525 215.681 38.1513C215.681 40.3116 214.502 41.4408 212.097 41.4408H192.9C193.047 46.7432 196.042 49.3453 201.885 49.3453C205.076 49.3453 208.365 48.7071 211.704 47.4306C212.244 47.2833 212.735 47.2342 213.128 47.2342C214.65 47.2342 215.435 48.0197 215.435 49.5417V52.5857C211.704 54.8933 207.187 56.0225 201.934 56.0225C191.034 55.9734 185.584 50.0327 185.584 38.1513ZM220.149 38.1513C220.149 26.2699 225.598 20.3292 236.498 20.3292C241.751 20.3292 246.268 21.4584 249.999 23.766V26.81C249.999 28.332 249.263 29.1175 247.692 29.1175C247.25 29.1175 246.808 29.0684 246.268 28.9211C242.929 27.6446 239.64 27.0064 236.449 27.0064C232.963 27.0064 230.557 28.0374 229.133 30.1486C227.906 31.916 227.317 34.5672 227.317 38.1513C227.317 41.7354 227.906 44.3866 229.133 46.1541C230.557 48.2652 233.012 49.2962 236.449 49.2962C239.64 49.2962 242.929 48.658 246.268 47.3815C246.808 47.2342 247.299 47.1851 247.692 47.1851C249.214 47.1851 249.999 47.9706 249.999 49.4926V52.5366C246.268 54.8442 241.751 55.9734 236.498 55.9734C225.598 55.9734 220.149 50.0327 220.149 38.1513ZM83.6597 52.1438L74.4787 20.6729H78.3573C80.763 20.6729 82.2359 21.8021 82.8251 24.1097L89.7477 47.9215L96.7195 24.1097C97.3086 21.8021 98.7815 20.6729 101.187 20.6729H105.066L95.8848 52.1438C95.2957 54.4514 93.8228 55.5806 91.417 55.5806H88.1766C85.7709 55.5806 84.2489 54.4514 83.6597 52.1438ZM127.994 29.2648C126.914 27.7428 124.95 26.9573 122.102 26.9573C119.206 26.9573 117.144 27.7428 115.867 29.2648C114.836 30.5413 114.247 32.3088 114.051 34.6163H129.418C129.32 32.2106 128.829 30.4431 127.994 29.2648ZM206.843 29.2648C205.763 27.7428 203.799 26.9573 200.952 26.9573C198.055 26.9573 195.993 27.7428 194.716 29.2648C193.685 30.5413 193.096 32.3088 192.9 34.6163H208.267C208.169 32.2106 207.629 30.4431 206.843 29.2648Z" fill="#003A5D"/>
<path d="M166.044 8.29837C165.013 8.29837 164.179 8.64205 163.491 9.3785C162.804 10.0659 162.46 10.8514 162.46 11.7842V13.7481H169.629V8.29837H166.044Z" fill="#003A5D"/>
<path d="M27.1014 24.8439C30.6364 21.5545 34.7114 19.787 38.0991 19.7379C38.3446 19.7379 38.541 19.7379 38.7864 19.7379C40.7012 19.8361 42.3705 20.5234 43.4997 21.7999C44.6289 23.0765 45.169 24.8439 45.0708 26.8078C44.9235 30.4409 42.7633 34.7614 38.9828 38.2473C33.1894 43.5988 25.874 44.9735 22.5845 41.2422C19.295 37.56 21.308 30.2446 27.1014 24.8439Z" fill="#0063A8"/>
<path d="M166.044 8.29837C165.013 8.29837 164.179 8.64205 163.491 9.3785C162.804 10.0659 162.46 10.8514 162.46 11.7842V13.7481H169.628V8.29837H166.044Z" fill="#0063A8"/>
<path d="M87.7993 70.3808H85.0767L84.4652 72.0769H83.5815L86.0631 65.5783H86.8129L89.299 72.0769H88.4197L87.7993 70.3808ZM85.3356 69.6756H87.5449L86.438 66.6361L85.3356 69.6756Z" fill="black"/>
<path d="M106.076 66.2835H103.988V72.0769H103.135V66.2835H101.051V65.5783H106.076V66.2835Z" fill="black"/>
<path d="M114.086 69.448H112.559V72.0769H111.698V65.5783H113.849C114.581 65.5783 115.144 65.745 115.536 66.0782C115.932 66.4115 116.13 66.8965 116.13 67.5333C116.13 67.9379 116.02 68.2905 115.8 68.5911C115.583 68.8916 115.279 69.1162 114.889 69.265L116.416 72.0233V72.0769H115.496L114.086 69.448ZM112.559 68.7473H113.876C114.302 68.7473 114.639 68.6372 114.889 68.417C115.142 68.1968 115.269 67.9022 115.269 67.5333C115.269 67.1316 115.148 66.8236 114.907 66.6094C114.669 66.3951 114.324 66.2865 113.872 66.2835H112.559V68.7473Z" fill="black"/>
<path d="M122.916 72.0769H122.059V65.5783H122.916V72.0769Z" fill="black"/>
<path d="M130.256 65.5783L132.381 70.8807L134.505 65.5783H135.617V72.0769H134.76V69.5462L134.84 66.8147L132.707 72.0769H132.051L129.922 66.8281L130.006 69.5462V72.0769H129.149V65.5783H130.256Z" fill="black"/>
<path d="M141.792 72.0769V65.5783H143.916C144.621 65.5783 145.151 65.7241 145.505 66.0157C145.862 66.3073 146.041 66.7388 146.041 67.3101C146.041 67.6136 145.954 67.8829 145.782 68.118C145.609 68.35 145.374 68.5301 145.077 68.658C145.428 68.7562 145.704 68.9437 145.907 69.2204C146.112 69.4941 146.215 69.8214 146.215 70.2023C146.215 70.7855 146.026 71.2437 145.648 71.577C145.27 71.9103 144.736 72.0769 144.046 72.0769H141.792ZM142.649 69.0374V71.3761H144.063C144.462 71.3761 144.776 71.2735 145.005 71.0682C145.237 70.8599 145.353 70.5742 145.353 70.2112C145.353 69.4287 144.928 69.0374 144.077 69.0374H142.649ZM142.649 68.35H143.943C144.318 68.35 144.617 68.2563 144.84 68.0689C145.066 67.8814 145.179 67.627 145.179 67.3056C145.179 66.9486 145.075 66.6897 144.867 66.529C144.659 66.3654 144.342 66.2835 143.916 66.2835H142.649V68.35Z" fill="black"/>
<path d="M153.01 71.3761H156.09V72.0769H152.149V65.5783H153.01V71.3761Z" fill="black"/>
<path d="M165.402 69.0731H162.586V71.3761H165.858V72.0769H161.729V65.5783H165.813V66.2835H162.586V68.3724H165.402V69.0731Z" fill="black"/>
<path d="M183.296 70.0148C183.215 70.7022 182.961 71.2333 182.533 71.6082C182.107 71.9802 181.54 72.1662 180.832 72.1662C180.064 72.1662 179.448 71.8909 178.984 71.3404C178.523 70.79 178.292 70.0535 178.292 69.1311V68.5063C178.292 67.9022 178.399 67.3711 178.614 66.9129C178.831 66.4546 179.137 66.1035 179.533 65.8595C179.929 65.6126 180.387 65.4891 180.908 65.4891C181.598 65.4891 182.152 65.6825 182.568 66.0693C182.985 66.4531 183.227 66.9858 183.296 67.6672H182.434C182.36 67.1494 182.198 66.7745 181.948 66.5424C181.701 66.3103 181.354 66.1943 180.908 66.1943C180.36 66.1943 179.93 66.3966 179.618 66.8013C179.309 67.206 179.154 67.7817 179.154 68.5286V69.1579C179.154 69.8631 179.301 70.424 179.596 70.8406C179.89 71.2571 180.302 71.4654 180.832 71.4654C181.308 71.4654 181.673 71.3583 181.926 71.1441C182.181 70.9268 182.351 70.5504 182.434 70.0148H183.296Z" fill="black"/>
<path d="M194.13 69.0374C194.13 69.6741 194.023 70.2306 193.809 70.7067C193.595 71.1798 193.291 71.5413 192.899 71.7912C192.506 72.0412 192.048 72.1662 191.524 72.1662C191.012 72.1662 190.558 72.0412 190.162 71.7912C189.767 71.5383 189.459 71.1798 189.239 70.7156C189.021 70.2484 188.91 69.7084 188.904 69.0954V68.6268C188.904 68.0019 189.012 67.4499 189.23 66.9709C189.447 66.4918 189.753 66.1258 190.149 65.8729C190.548 65.617 191.003 65.4891 191.515 65.4891C192.036 65.4891 192.494 65.6155 192.89 65.8685C193.288 66.1184 193.595 66.4829 193.809 66.962C194.023 67.438 194.13 67.993 194.13 68.6268V69.0374ZM193.278 68.6178C193.278 67.8472 193.123 67.2565 192.814 66.8459C192.504 66.4323 192.071 66.2255 191.515 66.2255C190.973 66.2255 190.546 66.4323 190.234 66.8459C189.924 67.2565 189.765 67.8278 189.756 68.5598V69.0374C189.756 69.7842 189.913 70.3719 190.225 70.8004C190.54 71.2259 190.973 71.4386 191.524 71.4386C192.077 71.4386 192.506 71.2378 192.809 70.8361C193.113 70.4314 193.269 69.8527 193.278 69.0999V68.6178Z" fill="black"/>
<path d="M201.185 65.5783L203.309 70.8807L205.434 65.5783H206.545V72.0769H205.688V69.5462L205.768 66.8147L203.635 72.0769H202.979L200.85 66.8281L200.935 69.5462V72.0769H200.078V65.5783H201.185Z" fill="black"/>
<path d="M213.577 69.5328V72.0769H212.72V65.5783H215.117C215.828 65.5783 216.384 65.7598 216.786 66.1229C217.191 66.4859 217.393 66.9664 217.393 67.5645C217.393 68.1953 217.195 68.6818 216.799 69.024C216.407 69.3632 215.843 69.5328 215.108 69.5328H213.577ZM213.577 68.8321H215.117C215.575 68.8321 215.926 68.725 216.17 68.5107C216.414 68.2935 216.536 67.9811 216.536 67.5734C216.536 67.1866 216.414 66.8772 216.17 66.6451C215.926 66.413 215.591 66.2925 215.166 66.2835H213.577V68.8321Z" fill="black"/>
<path d="M226.121 70.3808H223.398L222.787 72.0769H221.903L224.385 65.5783H225.135L227.621 72.0769H226.741L226.121 70.3808ZM223.657 69.6756H225.867L224.76 66.6361L223.657 69.6756Z" fill="black"/>
<path d="M238.152 72.0769H237.29L234.019 67.0691V72.0769H233.157V65.5783H234.019L237.299 70.6085V65.5783H238.152V72.0769Z" fill="black"/>
<path d="M246.192 68.841L247.888 65.5783H248.861L246.621 69.6533V72.0769H245.764V69.6533L243.523 65.5783H244.505L246.192 68.841Z" fill="black"/>
</svg>
